<?xml version="1.0"?>
<svg xmlns="http://www.w3.org/2000/svg" xmlns:xlink="http://www.w3.org/1999/xlink" version="1.1" id="Capa_1" x="0px" y="0px" viewBox="0 0 398.629 398.629" style="enable-background:new 0 0 398.629 398.629;" xml:space="preserve" width="512px" height="512px" class=""><g><g>
	<g>
		<g>
			<rect x="0" y="31.347" width="313.469" height="26.122" data-original="#000000" class="active-path" data-old_color="#000000" fill="#49D1CA"/>
			<path d="M6.269,73.143l120.686,122.253c1.567,1.567,3.657,3.657,3.657,5.747v166.139l52.245-28.212V201.143     c0-2.09,2.09-4.18,3.657-5.747L307.2,73.143H6.269z" data-original="#000000" class="active-path" data-old_color="#000000" fill="#49D1CA"/>
			<path d="M327.053,182.335c-39.818-0.289-72.33,31.756-72.619,71.574c-0.289,39.818,31.756,72.33,71.574,72.618     s72.33-31.756,72.618-71.574c0.001-0.173,0.002-0.347,0.002-0.521C398.63,214.817,366.667,182.622,327.053,182.335z      M376.163,266.449h-94.041c-4.328,0-7.837-3.509-7.837-7.837c0-4.328,3.509-7.837,7.837-7.837h94.041     c4.328,0,7.837,3.509,7.837,7.837C384,262.94,380.491,266.449,376.163,266.449z" data-original="#000000" class="active-path" data-old_color="#000000" fill="#49D1CA"/>
		</g>
	</g>
</g></g> </svg>
