<?xml version="1.0"?>
<svg xmlns="http://www.w3.org/2000/svg" xmlns:xlink="http://www.w3.org/1999/xlink" version="1.1" id="Capa_1" x="0px" y="0px" viewBox="0 0 460 460" style="enable-background:new 0 0 460 460;" xml:space="preserve" width="512px" height="512px"><g><g id="XMLID_1027_">
	<g id="XMLID_1030_">
		<rect x="30" y="60" width="70" height="40" data-original="#000000" class="active-path" data-old_color="#000000" fill="#49D1CA"/>
	</g>
	<g id="XMLID_1033_">
		<polygon points="290,10 170,10 150,100 310,100   " data-original="#000000" class="active-path" data-old_color="#000000" fill="#49D1CA"/>
	</g>
	<g id="XMLID_1036_">
		<path d="M345,305c0,63.411-51.589,115-115,115s-115-51.589-115-115c0-33.64,14.52-63.952,37.621-85H0v230h460V220H307.379    C330.48,241.048,345,271.36,345,305z" data-original="#000000" class="active-path" data-old_color="#000000" fill="#49D1CA"/>
	</g>
	<g id="XMLID_1041_">
		<path d="M230,390c46.869,0,85-38.131,85-85s-38.131-85-85-85s-85,38.131-85,85S183.131,390,230,390z M230,275    c16.542,0,30,13.458,30,30c0,16.542-13.458,30-30,30s-30-13.458-30-30C200,288.458,213.458,275,230,275z" data-original="#000000" class="active-path" data-old_color="#000000" fill="#49D1CA"/>
	</g>
	<g id="XMLID_1046_">
		<rect y="130" width="460" height="60" data-original="#000000" class="active-path" data-old_color="#000000" fill="#49D1CA"/>
	</g>
</g></g> </svg>
