<svg xmlns="http://www.w3.org/2000/svg" viewBox="0 0 311.35 311.35"><defs><style>.cls-1{fill:#49d1ca;}</style></defs><title>Ресурс 1</title><g id="Слой_2" data-name="Слой 2"><g id="Слой_1-2" data-name="Слой 1"><path class="cls-1" d="M165.63,215.21a60.4,60.4,0,0,0,49.58-49.58H165.63Z"/><path class="cls-1" d="M215.21,145.72a60.4,60.4,0,0,0-49.58-49.58v49.58Z"/><path class="cls-1" d="M234.51,145.72h30.23a109.53,109.53,0,0,0-99.1-99.1V76.84A79.48,79.48,0,0,1,234.51,145.72Z"/><path class="cls-1" d="M96.14,165.63a60.4,60.4,0,0,0,49.58,49.58V165.63Z"/><path class="cls-1" d="M76.84,165.63H46.62a109.53,109.53,0,0,0,99.1,99.1V234.51A79.48,79.48,0,0,1,76.84,165.63Z"/><path class="cls-1" d="M145.72,96.14a60.4,60.4,0,0,0-49.58,49.58h49.58Z"/><path class="cls-1" d="M145.72,76.84V46.62a109.53,109.53,0,0,0-99.1,99.1H76.84A79.48,79.48,0,0,1,145.72,76.84Z"/><path class="cls-1" d="M165.63,234.51v30.23a109.53,109.53,0,0,0,99.1-99.1H234.51A79.48,79.48,0,0,1,165.63,234.51Z"/><path class="cls-1" d="M283.74,145.72h27.61A156,156,0,0,0,165.63,0V27.61A128.47,128.47,0,0,1,283.74,145.72Z"/><path class="cls-1" d="M27.61,165.63H0A156,156,0,0,0,145.72,311.35V283.74A128.47,128.47,0,0,1,27.61,165.63Z"/><path class="cls-1" d="M165.63,283.74v27.61A156,156,0,0,0,311.35,165.63H283.74A128.47,128.47,0,0,1,165.63,283.74Z"/><path class="cls-1" d="M145.72,27.61V0A156,156,0,0,0,0,145.72H27.61A128.47,128.47,0,0,1,145.72,27.61Z"/></g></g></svg>