<?xml version="1.0"?>
<svg xmlns="http://www.w3.org/2000/svg" xmlns:xlink="http://www.w3.org/1999/xlink" version="1.1" id="Capa_1" x="0px" y="0px" viewBox="0 0 460 460" style="enable-background:new 0 0 460 460;" xml:space="preserve" width="512px" height="512px"><g><g id="XMLID_85_">
	<polygon id="XMLID_86_" points="340,50 340,130 245,130 245,212.574 279.394,178.181 300.606,199.394 230,270 159.394,199.394    180.606,178.181 215,212.574 215,130 120,130 120,50 0,50 0,300 460,300 460,50  " data-original="#000000" class="active-path" data-old_color="#000000" fill="#49D1CA"/>
	<polygon id="XMLID_87_" points="0,380 215,380 215,430 110,430 110,460 350,460 350,430 245,430 245,380 460,380 460,330 0,330     " data-original="#000000" class="active-path" data-old_color="#000000" fill="#49D1CA"/>
	<path id="XMLID_88_" d="M310,0H150v100h160V0z M230,70c-11.046,0-20-8.954-20-20s8.954-20,20-20s20,8.954,20,20S241.046,70,230,70z   " data-original="#000000" class="active-path" data-old_color="#000000" fill="#49D1CA"/>
</g></g> </svg>
