<?xml version="1.0" encoding="utf-8"?>
<!-- Generator: Adobe Illustrator 21.0.0, SVG Export Plug-In . SVG Version: 6.00 Build 0)  -->
<svg version="1.1" id="Capa_1" xmlns="http://www.w3.org/2000/svg" xmlns:xlink="http://www.w3.org/1999/xlink" x="0px" y="0px"
	 viewBox="0 0 512 512" style="enable-background:new 0 0 512 512;" xml:space="preserve">
<style type="text/css">
	.st0{fill:#49D1CA;}
	.st1{fill:#FFFFFF;}
</style>
<path class="st0" d="M475.7,72c-24.2-23.6-57.6-35.4-100.3-35.4c-11.8,0-23.9,2-36.1,6.1c-12.3,4.1-23.7,9.6-34.3,16.6
	c-10.6,7-19.7,13.5-27.3,19.6c-7.6,6.1-14.9,12.6-21.7,19.4c-6.9-6.9-14.1-13.3-21.7-19.4c-7.6-6.1-16.7-12.6-27.3-19.6
	c-10.6-7-22-12.5-34.3-16.6c-12.3-4.1-24.3-6.1-36.1-6.1C93.9,36.6,60.5,48.4,36.3,72C12.1,95.6,0,128.4,0,170.3
	c0,12.8,2.2,25.9,6.7,39.4c4.5,13.5,9.6,25,15.3,34.6c5.7,9.5,12.2,18.8,19.4,27.9c7.2,9,12.5,15.3,15.9,18.7c3.3,3.4,6,5.9,7.9,7.4
	l178.3,172c3.4,3.4,7.6,5.1,12.6,5.1c5,0,9.1-1.7,12.6-5.1l178-171.4c43.6-43.6,65.4-86.5,65.4-128.6C512,128.4,499.9,95.6,475.7,72
	z"/>
<path class="st1" d="M421.7,272L256,431.7l-166-160c-35.6-35.6-53.4-69.4-53.4-101.4c0-15.4,2-29,6.1-40.9
	c4.1-11.8,9.3-21.2,15.7-28.1c6.4-7,14.1-12.6,23.3-17c9.1-4.4,18.1-7.3,26.9-8.9c8.8-1.5,18.1-2.3,28-2.3c9.9,0,20.6,2.4,32,7.3
	c11.4,4.9,22,11,31.6,18.3c9.6,7.3,17.9,14.2,24.7,20.6c6.9,6.4,12.6,12.2,17.1,17.6c3.4,4.2,8.1,6.3,14,6.3c5.9,0,10.6-2.1,14-6.3
	c4.6-5.3,10.3-11.2,17.1-17.6c6.9-6.4,15.1-13.2,24.7-20.6c9.6-7.3,20.1-13.4,31.6-18.3c11.4-4.9,22.1-7.3,32-7.3s19.2,0.8,28,2.3
	c8.8,1.5,17.7,4.5,26.9,8.9c9.1,4.4,16.9,10,23.3,17c6.4,7,11.6,16.3,15.7,28.1c4.1,11.8,6.1,25.4,6.1,40.9
	C475.4,202.3,457.5,236.2,421.7,272z"/>
</svg>
