<svg id="Capa_1" enable-background="new 0 0 512 512" height="512" viewBox="0 0 512 512" width="512" xmlns="http://www.w3.org/2000/svg"><g><path d="m512 256c0 81.31-37.92 153.78-97.03 200.67-35.81 28.41-413.65-230.68-411.12-245.12v-.01c21.05-120.19 125.94-211.54 252.15-211.54 141.38 0 256 114.62 256 256z" fill="#453d81"/><g fill="#da387d"><path d="m497.126 115.829-50.432 55.017-50.432-126.335-50.432 126.336-50.432-55.017v63.168c0 55.706 45.159 100.865 100.865 100.865 55.706 0 100.865-45.159 100.865-100.865v-63.169z"/><path d="m414.97 419.91v36.76c-37.87 30.04-84.44 49.59-135.32 54.25-9.05-12.37-14.39-27.63-14.39-44.13v-46.88l37.43 40.83 37.42-93.75 37.43 93.75z"/><path d="m215.131 83.905-50.432 55.017-50.432-126.335-50.433 126.335-50.432-55.017v63.168c0 55.706 45.159 100.865 100.865 100.865 55.706 0 100.865-45.159 100.865-100.865v-63.168z"/></g><g><circle cx="334.165" cy="168.809" fill="#f9f6f9" r="38.046"/><circle cx="329.262" cy="167.421" fill="#da387d" r="22.192"/><path d="m266.256 36.24c-22.108-6.259-45.105 6.588-51.364 28.696l-13.72 48.458 80.06 22.667 13.72-48.458c6.26-22.107-6.588-45.104-28.696-51.363z" fill="#ac80dd"/><path d="m277.688 41.427c-17.724.479-33.842 12.329-38.921 30.269l-13.72 48.457-23.875-6.76 13.72-48.457c6.257-22.101 29.253-34.957 51.364-28.697 4.161 1.179 7.984 2.945 11.432 5.188z" fill="#9d66d5"/><g><path d="m308.657 180.262 38.75-170.521c1.85-8.139-8.498-13.258-13.845-6.85l-112.033 134.267z" fill="#b1e4f9"/><g fill="#90d8f9"><path d="m343.181.859c-.812-.402-2.525 1.015-4.557 4.538l-85.169 147.556-31.926-15.794 112.026-134.27c2.676-3.204 6.608-3.523 9.626-2.03z"/><path d="m232.666 127.753c-3.967-1.962-6.47-6.26-5.937-10.909.68-5.922 6.033-10.171 11.955-9.491l83.165 9.553c5.924.681 10.171 6.034 9.491 11.955-.68 5.922-6.033 10.171-11.955 9.491l-83.165-9.553c-1.272-.147-2.468-.509-3.554-1.046z"/><path d="m270.974 81.855c-3.966-1.962-6.47-6.259-5.936-10.908.68-5.922 6.031-10.173 11.954-9.493l55.99 6.424c5.921.679 10.172 6.032 9.493 11.954-.68 5.922-6.031 10.173-11.954 9.493l-55.99-6.424c-1.273-.146-2.47-.509-3.557-1.046z"/><path d="m309.275 35.951c-3.967-1.962-6.471-6.26-5.936-10.91.68-5.922 6.033-10.171 11.956-9.49l28.835 3.314c5.921.679 10.171 6.033 9.49 11.956-.68 5.922-6.033 10.171-11.956 9.49l-28.835-3.314c-1.273-.146-2.469-.509-3.554-1.046z"/></g></g><path d="m160.8 22.003c32.162 0 58.235 26.073 58.235 58.235s-26.073 58.235-58.235 58.235z" fill="#ffceec"/><path d="m269.83 161.05h-56.01c.16 2.06.27 4.15.27 6.24 0 41.1-30.9 74.96-70.72 79.66 1.14 5.39 1.74 10.97 1.74 16.7 0 35.64-23.26 65.85-55.43 76.3 6.73 12.91-49.6 53.77-52.88 48.34-23.36-38.61-36.8-83.88-36.8-132.29 0-15.17 1.32-30.02 3.85-44.46 12.78-14.94 30.95-25.13 51.5-27.56-1.14-5.39-1.74-10.96-1.74-16.69 0-44.31 35.92-80.23 80.23-80.23h101.05c19.3 0 34.94 15.64 34.94 34.92z" fill="#ac80dd"/><path d="m287.92 292.13v217.9c-2.74.34-5.5.64-8.27.89-7.79.72-15.68 1.08-23.65 1.08-15.54 0-30.756-1.385-45.533-4.038-34.655-6.222-56.64-29.669-84.949-48.335-24.696-16.284-56.656-26.479-74.378-50.088l119.44-282.49z" fill="#ffddf1"/><path d="m194.31 282.07-84.419 172.513c-20.74-15.08-43.361-24.553-58.751-45.043-5.13-6.83-9.92-13.92-14.34-21.25l133.78-261.24 20.28 28.53z" fill="#ffceec"/><path d="m109.43 167.29c0 5.73.62 11.3 1.76 16.69-39.83 4.71-70.73 38.57-70.73 79.67 0 9.68 1.72 18.97 4.87 27.56-14.79 2.77-28.36 9.01-39.82 17.87-3.61-17.13-5.51-34.88-5.51-53.08 0-15.17 1.32-30.01 3.85-44.45 0 0 .01 0 0-.01 12.78-14.94 30.95-25.13 51.5-27.56-1.14-5.39-1.74-10.96-1.74-16.69 0-44.31 35.92-80.23 80.23-80.23h55.84c-44.32 0-80.25 35.92-80.25 80.23z" fill="#9d66d5"/><path d="m452.53 349.733c-2.416 8.532-8.065 15.27-15.235 19.285s-15.878 5.28-24.399 2.867c-16.388-4.64-26.174-21.2-22.643-37.617l-71.048-11.436c-12.32 16.039-29.113 27.936-47.988 34.375-18.875 6.438-39.838 7.403-60.481 1.559-54.075-15.31-85.504-71.566-70.194-125.64l30.034-106.079 285.019 80.697c18.986 5.375 30.022 25.13 24.647 44.116z" fill="#ffddf1"/><path d="m69.807 57.869c-20.669 30.652-12.577 72.256 18.075 92.925s72.256 12.577 92.925-18.075z" fill="#ffceec"/><path d="m424.498 255.597c-6.438-1.823-10.179-8.519-8.356-14.957 1.823-6.438 8.519-10.179 14.957-8.356 6.438 1.823 10.179 8.519 8.356 14.957-1.823 6.437-8.519 10.179-14.957 8.356z" fill="#eaaadd"/><path d="m224.854 361.712c-4.702-.635-9.419-1.618-14.118-2.948-54.075-15.31-85.504-71.566-70.194-125.64l30.034-106.079 27.623 7.821-30.034 106.079c-13.986 49.396 11.035 100.61 56.689 120.767z" fill="#ffceec"/><path d="m458.226 265.146c-6.438-1.823-10.179-8.519-8.356-14.957 1.823-6.438 8.519-10.179 14.957-8.356 6.438 1.823 10.179 8.519 8.356 14.957-1.822 6.438-8.519 10.179-14.957 8.356z" fill="#eaaadd"/><g><circle cx="250.242" cy="145.048" fill="#f9f6f9" r="38.046"/><circle cx="251.191" cy="145.317" fill="#da387d" r="22.192"/></g><path d="m320.675 150.964c-20.659 0-37.688-7.027-50.359-14.992-24.288-15.269-37.446-36.862-37.994-37.774-2.846-4.733-1.316-10.877 3.417-13.723 4.728-2.842 10.863-1.32 13.713 3.4.198.323 11.689 18.912 32.07 31.515 26.353 16.296 55.247 15.388 85.881-2.697 4.756-2.807 10.888-1.229 13.695 3.528 2.808 4.756 1.229 10.887-3.527 13.695-21.075 12.44-40.175 17.048-56.896 17.048z" fill="#eaaadd"/><path d="m455.46 312.93c-3.55 12.52-14.94 20.69-27.34 20.69-2.56 0-5.17-.35-7.76-1.08l-25.49-18.8c-15.11-4.27-9.44-5.55-5.16-20.66 3.55-12.52-1.03-12.59 11.36-12.59 2.56 0 5.17.35 7.76 1.08l27.02-3.74c2.11.6 4.1 1.42 5.94 2.43 11.37 6.23 17.35 19.67 13.67 32.67z" fill="#453d81"/><path d="m441.79 280.26-5.341 15.186c-.937 2.663-3.814 4.106-6.509 3.264l-3.82 13.48-5.76 20.35-10.89-3.08-9.62-2.73-16.93-4.79c-.43-.12-.85-.25-1.27-.39-3.36-1.12-6.38-2.82-8.99-4.95-6.78-5.55-10.72-14.05-10.41-22.97.07-2.25.42-4.53 1.06-6.79.67-2.39 1.64-4.62 2.84-6.66 1.65-2.81 3.75-5.27 6.18-7.31 4.12-3.48 9.16-5.74 14.54-6.47 1.24-.16 2.51-.25 3.78-.25 2.14 0 4.31.24 6.47.75.43.1.86.21 1.29.33l16.93 4.79 9.62 2.73 10.89 3.08c2.11.6 4.1 1.42 5.94 2.43z" fill="#f9f6f9"/><g fill="#dddaec"><path d="m429.94 298.71-3.82 13.48-63.87-18.56c.07-2.25.42-4.53 1.06-6.79.67-2.39 1.64-4.62 2.84-6.66z"/><path d="m397.12 266.9-15.47 54.65c-3.36-1.12-6.38-2.82-8.99-4.95l14.21-50.2c1.24-.16 2.51-.25 3.78-.25 2.14 0 4.31.24 6.47.75z"/><path d="m383.975 295.74h56.861v10h-56.861z" transform="matrix(.272 -.962 .962 .272 10.692 615.619)"/></g></g><path d="m238.22 381.31v58.67c0 25.87-10.48 49.29-27.44 66.24-.51.51-1.03 1.01-1.55 1.52-38.16-7.05-73.36-22.56-103.57-44.51-20.74-15.08-39.13-33.2-54.52-53.69-.1-.13-.19-.25-.28-.38v-27.85l46.84 51.1 46.84-117.33 46.84 117.33z" fill="#da387d"/></g></svg>