<svg id="Capa_1" enable-background="new 0 0 512 512" height="512" viewBox="0 0 512 512" width="512" xmlns="http://www.w3.org/2000/svg"><g><path d="m512 256c0 77.87-34.77 147.63-89.64 194.58-44.74 38.29-102.85 32.996-166.36 32.996-52.2 0-80.656-7.32-121.136-34.161-14.21-9.42-21.11-26.559-33.14-38.549-35.576-35.461-87.223-54.879-97.102-106.195-3.034-15.757-4.622-32.029-4.622-48.671 0-141.38 114.62-256 256-256s256 114.62 256 256z" fill="#3342aa"/><g><path d="m445.135 118.446c-3.452 0-6.735.713-9.717 1.997-5.903-8.5-15.73-14.069-26.863-14.069-18.054 0-32.69 14.636-32.69 32.69s14.636 32.69 32.69 32.69c8.582 0 16.388-3.312 22.22-8.722 4.042 2.91 8.998 4.63 14.359 4.63 13.591 0 24.608-11.018 24.608-24.608.001-13.591-11.016-24.608-24.607-24.608z" fill="#f9f6f9"/><path d="m397.815 139.063c0 14.21 9.06 26.29 21.71 30.8-3.43 1.22-7.12 1.89-10.97 1.89-18.05 0-32.69-14.63-32.69-32.69 0-18.05 14.64-32.69 32.69-32.69 3.85 0 7.54.66 10.97 1.89-12.65 4.51-21.71 16.6-21.71 30.8z" fill="#dddaec"/><circle cx="329.836" cy="149.616" fill="#f9f6f9" r="34.667"/><circle cx="325.192" cy="149.616" fill="#453d81" r="20.221"/><path d="m272.933 128.936c25.908-9.156 39.488-37.582 30.332-63.49s-37.582-39.489-63.49-30.333c-.932.329-1.842.69-2.742 1.069-12.135-19.179-36.293-28.158-58.598-20.275-11.863 4.193-21.13 12.431-26.825 22.612-9.681-9.836-24.526-13.778-38.398-8.875-12.725 4.497-21.408 15.299-23.802 27.655-9.666-2.826-20.274-2.765-30.495.847-25.908 9.156-39.489 37.581-30.332 63.49.439 1.242.936 2.447 1.461 3.632-1.245.298-2.487.661-3.721 1.097-19.108 6.753-29.123 27.717-22.37 46.825s27.717 29.123 46.825 22.371" fill="#f9f6f9"/><path d="m285.208 122.565c-3.688 2.624-7.8 4.789-12.278 6.371l-222.158 66.625c-19.109 6.753-40.07-3.271-46.823-22.381-6.749-19.097 3.258-40.065 22.368-46.819 1.239-.438 2.474-.802 3.72-1.097-.519-1.181-1.017-2.384-1.459-3.635-9.157-25.91 4.43-54.327 30.34-63.483 9.226-3.261 18.776-3.631 27.66-1.575-10.16 12.938-13.686 30.644-7.794 47.315.442 1.251.94 2.454 1.459 3.635-1.246.295-2.481.659-3.72 1.097-19.11 6.753-29.117 27.722-22.368 46.819 6.753 19.11 27.714 29.134 46.823 22.381z" fill="#dddaec"/><path d="m237.389 50.243c-20.937 0-37.91 16.973-37.91 37.91v45.891h75.819v-45.891c.001-20.937-16.972-37.91-37.909-37.91z" fill="#ac80dd"/><path d="m248.7 51.953c-15.42 4.82-26.61 19.21-26.61 36.2v45.89h-22.61v-45.89c0-20.93 16.97-37.91 37.91-37.91 3.94 0 7.73.6 11.31 1.71z" fill="#9d66d5"/><g><path d="m310.314 165.988-8.354-159.122c-.399-7.595-10.742-9.515-13.839-2.568l-64.895 145.528z" fill="#b1e4f9"/><g fill="#90d8f9"><path d="m296.05.128c-.812-.151-1.962 1.517-2.869 5.11l-38.043 150.511-31.912-5.923 64.888-145.529c1.551-3.473 4.919-4.729 7.936-4.169z"/><path d="m230.655 138.815c-3.965-.736-7.227-3.882-7.913-8.091-.873-5.361 2.765-10.415 8.126-11.289l75.286-12.269c5.363-.874 10.415 2.765 11.289 8.126s-2.765 10.415-8.126 11.289l-75.286 12.269c-1.152.187-2.29.166-3.376-.035z"/><path d="m252.849 89.065c-3.964-.736-7.226-3.882-7.912-8.09-.874-5.361 2.763-10.416 8.124-11.29l50.684-8.266c5.36-.874 10.415 2.763 11.29 8.124.874 5.361-2.763 10.416-8.124 11.29l-50.684 8.266c-1.153.188-2.292.167-3.378-.034z"/><path d="m275.034 39.312c-3.965-.736-7.227-3.883-7.913-8.092-.873-5.361 2.765-10.415 8.126-11.288l26.104-4.252c5.36-.875 10.415 2.765 11.288 8.126s-2.765 10.415-8.126 11.288l-26.104 4.252c-1.152.188-2.29.167-3.375-.034z"/></g></g><path d="m167.134 57.892c29.306 0 53.064 23.758 53.064 53.064s-23.758 53.064-53.064 53.064z" fill="#ffceec"/><path d="m266.48 184.59h-51.03c.14 1.88.24 3.78.24 5.69 0 37.45-28.15 68.3-64.44 72.59 1.04 4.91 1.59 9.99 1.59 15.21 0 32.48-21.2 60.01-50.51 69.53 6.13 11.76 9.61 25.12 9.61 39.29 0 23.83 17.652 18.248 1.882 33.698-8.64-7.64-15.878-5.7-23.408-14.43-5.13-5.95-38.314 4.832-42.894-1.578-20.93-29.31-35.83-63.22-42.89-99.92 2.1-.58 4.24-1.07 6.41-1.47-2.87-7.83-4.43-16.3-4.43-25.12 0-37.45 28.15-68.3 64.44-72.59-1.04-4.91-1.59-9.99-1.59-15.21 0-40.38 32.73-73.11 73.11-73.11h92.08c17.58 0 31.83 14.25 31.83 31.82z" fill="#ac80dd"/><path d="m120.33 190.28c0 5.22.56 10.3 1.6 15.21-36.29 4.29-64.45 35.14-64.45 72.59 0 8.82 1.57 17.29 4.44 25.12-20.08 3.75-37.68 14.54-50.14 29.72-2.91-9.2-5.3-18.63-7.15-28.25 2.1-.58 4.24-1.07 6.41-1.47-2.87-7.83-4.43-16.3-4.43-25.12 0-37.45 28.15-68.3 64.44-72.59-1.04-4.91-1.59-9.99-1.59-15.21 0-40.38 32.73-73.11 73.11-73.11h50.88c-40.38 0-73.12 32.73-73.12 73.11z" fill="#9d66d5"/><path d="m497.292 249.098c0 7.62-6.18 13.8-13.8 13.8h-4.97v15.96c0 8.08-3.28 15.39-8.57 20.69s-12.61 8.57-20.68 8.57c-15.52 0-28.21-12.09-29.19-27.36l-65.13 7.61c-6.82 17.12-18.59 31.72-33.54 42.05s-33.09 16.38-52.64 16.38c-51.21 0-92.73-41.52-92.73-92.73v-100.46h269.92c17.98 0 32.56 14.58 32.56 32.56v49.13h4.97c7.62 0 13.8 6.18 13.8 13.8z" fill="#ffddf1"/><path d="m333.3 296.91 101.216-5.444-8.104-34.905-97.546 23.943z" fill="#ffddf1"/><path d="m478.52 262.9v15.16c-12.83 1.58-32.29 3.4-54.01 3.4-47.76 0-106.43-8.78-129.62-48.16-2.1-3.57-.91-8.17 2.65-10.27 3.57-2.1 8.17-.91 10.27 2.66 10.1 17.15 36.33 38.09 103.9 40.47 26.93.95 52.17-1.43 66.81-3.26z" fill="#eaaadd"/><path d="m282.97 304.03v147.622c-8.86.93-17.86-.665-26.97-.665-70.539 0-134.41 32.481-180.709-13.669-4.576-4.561-8.98-9.294-13.201-14.188l113.96-269.52z" fill="#ffddf1"/><path d="m197.67 294.87-60.732 124.113-11.911 24.341c-13.48-9.118-38.247 5.443-49.735-6.006-4.576-4.561-8.981-9.293-13.202-14.187-5.13-5.95-9.99-12.13-14.57-18.54l128.53-250.98 18.48 26z" fill="#ffceec"/><path d="m64.468 153.606c0 33.687 27.309 60.996 60.996 60.996s60.996-27.309 60.996-60.996z" fill="#ffceec"/><path d="m430.578 203.283c-6.097 0-11.039-4.942-11.039-11.039 0-6.097 4.942-11.039 11.039-11.039 6.097 0 11.039 4.942 11.039 11.039 0 6.097-4.942 11.039-11.039 11.039z" fill="#eaaadd"/><path d="m462.52 203.283c-6.097 0-11.039-4.942-11.039-11.039 0-6.097 4.942-11.039 11.039-11.039 6.097 0 11.039 4.942 11.039 11.039 0 6.097-4.943 11.039-11.039 11.039z" fill="#eaaadd"/><path d="m281.882 345.876c-4.28.61-8.66.92-13.11.92-51.21 0-92.73-41.52-92.73-92.73v-100.46h26.16v100.46c0 46.78 34.65 85.47 79.68 91.81z" fill="#ffceec"/><g><circle cx="250.358" cy="149.616" fill="#f9f6f9" r="34.667"/><circle cx="251.257" cy="149.616" fill="#453d81" r="20.221"/></g></g><path d="m422.36 450.58c-44.74 38.29-102.85 61.42-166.36 61.42-70.53 0-134.41-28.53-180.71-74.68 5.84-2.93 12.44-4.58 19.42-4.58 1.54 0 3.07.08 4.57.24-.11-1.53-.19-3.06-.19-4.62 0-32.46 26.31-58.78 58.78-58.78 12.8 0 24.64 4.11 34.3 11.06 7.53-12.82 21.45-21.43 37.4-21.43 17.38 0 32.36 10.23 39.27 25 10.35-9.1 23.92-14.63 38.78-14.63 27.95 0 51.33 19.51 57.29 45.65 1.15-.07 2.31-.11 3.48-.11 24.17 0 44.94 14.6 53.97 35.46z" fill="#f9f6f9"/><path d="m161.99 428.35c0 1.57.08 3.1.19 4.62-1.5-.16-3.02-.24-4.57-.24-21.72 0-39.7 15.97-42.86 36.8-14.21-9.42-27.43-20.22-39.46-32.21l-.01-.01c5.84-2.93 12.44-4.58 19.42-4.58 1.55 0 3.07.08 4.57.24-.11-1.52-.19-3.05-.19-4.62 0-32.47 26.32-58.77 58.79-58.77 11.56 0 22.34 3.35 31.43 9.13-16.41 10.42-27.31 28.75-27.31 49.64z" fill="#dddaec"/><g><circle cx="389.167" cy="359.871" fill="#f9f6f9" r="23.943"/><path d="m397.644 382.261c-2.64 1-5.49 1.55-8.48 1.55-13.22 0-23.94-10.72-23.94-23.94s10.72-23.94 23.94-23.94c2.99 0 5.84.55 8.48 1.55-9.04 3.42-15.47 12.15-15.47 22.39s6.43 18.97 15.47 22.39z" fill="#dddaec"/></g><g><circle cx="92.061" cy="300.393" fill="#f9f6f9" r="28.109"/><path d="m102.013 326.679c-3.099 1.174-6.445 1.82-9.956 1.82-15.52 0-28.106-12.586-28.106-28.106s12.585-28.106 28.106-28.106c3.51 0 6.856.646 9.956 1.82-10.613 4.015-18.162 14.264-18.162 26.286s7.549 22.271 18.162 26.286z" fill="#dddaec"/></g><g><circle cx="426.412" cy="393.79" fill="#f9f6f9" r="15.962"/><path d="m432.063 408.717c-1.76.667-3.66 1.034-5.653 1.034-8.813 0-15.96-7.147-15.96-15.96s7.147-15.96 15.96-15.96c1.993 0 3.893.367 5.653 1.034-6.027 2.28-10.313 8.1-10.313 14.926s4.286 12.646 10.313 14.926z" fill="#dddaec"/></g><g><circle cx="363.894" cy="70.56" fill="#f9f6f9" r="21.283"/><path d="m371.429 90.462c-2.347.889-4.88 1.378-7.538 1.378-11.751 0-21.28-9.529-21.28-21.28s9.529-21.28 21.28-21.28c2.658 0 5.191.489 7.538 1.378-8.036 3.04-13.751 10.8-13.751 19.902s5.716 16.862 13.751 19.902z" fill="#dddaec"/></g></g></svg>