<svg id="Capa_1" enable-background="new 0 0 512 512" height="512" viewBox="0 0 512 512" width="512" xmlns="http://www.w3.org/2000/svg"><g><path d="m512 256c0 119.04-81.26 219.12-191.34 247.76-7.68 2-15.52-16.34-23.47-15.06-8.24 1.34-16.6 22.28-25.08 22.8-5.33.33-10.7.5-16.11.5-2.35 0-4.7-.03-7.03-.1-3.3-.09-248.06-280.81-246.31-292.89 17.92-123.85 124.52-219.01 253.34-219.01 141.38 0 256 114.62 256 256z" fill="#3342aa"/><path d="m429.737 329.86h-12.317c.644-1.421 1.011-2.994 1.011-4.656 0-6.244-5.062-11.306-11.306-11.306h-71.164c-6.244 0-11.306 5.062-11.306 11.306 0 6.244 5.062 11.306 11.306 11.306h12.318c-.644 1.421-1.011 2.994-1.011 4.656 0 6.244 5.062 11.306 11.306 11.306h28.403c5.863 0 10.615 4.753 10.615 10.615v15.323h27.49v-25.938h4.656c6.244 0 11.306-5.062 11.306-11.306 0-6.244-5.062-11.306-11.307-11.306z" fill="#9d66d5"/><g><circle cx="295.836" cy="149.616" fill="#f9f6f9" r="34.667"/><circle cx="291.192" cy="149.616" fill="#453d81" r="20.221"/><path d="m203.389 50.243c-20.937 0-37.91 16.973-37.91 37.91v45.891h75.819v-45.891c.001-20.937-16.972-37.91-37.909-37.91z" fill="#ac80dd"/><path d="m214.7 51.953c-15.42 4.82-26.61 19.21-26.61 36.2v45.89h-22.61v-45.89c0-20.93 16.97-37.91 37.91-37.91 3.94 0 7.73.6 11.31 1.71z" fill="#9d66d5"/><g><path d="m276.314 165.988-8.354-159.122c-.399-7.595-10.742-9.515-13.839-2.568l-64.895 145.528z" fill="#b1e4f9"/><g fill="#90d8f9"><path d="m262.05.128c-.812-.151-1.962 1.517-2.869 5.11l-38.043 150.511-31.912-5.923 64.888-145.529c1.551-3.473 4.919-4.729 7.936-4.169z"/><path d="m196.655 138.815c-3.965-.736-7.227-3.882-7.913-8.091-.873-5.361 2.765-10.415 8.126-11.289l75.286-12.269c5.363-.874 10.415 2.765 11.289 8.126s-2.765 10.415-8.126 11.289l-75.286 12.269c-1.152.187-2.29.166-3.376-.035z"/><path d="m218.849 89.065c-3.964-.736-7.226-3.882-7.912-8.09-.874-5.361 2.763-10.416 8.124-11.29l50.684-8.266c5.36-.874 10.415 2.763 11.29 8.124.874 5.361-2.763 10.416-8.124 11.29l-50.684 8.266c-1.153.188-2.292.167-3.378-.034z"/><path d="m241.034 39.312c-3.965-.736-7.227-3.883-7.913-8.092-.873-5.361 2.765-10.415 8.126-11.288l26.104-4.252c5.36-.875 10.415 2.765 11.288 8.126s-2.765 10.415-8.126 11.288l-26.104 4.252c-1.152.188-2.29.167-3.375-.034z"/></g></g><path d="m133.134 57.892c29.306 0 53.064 23.758 53.064 53.064s-23.758 53.064-53.064 53.064z" fill="#ffceec"/><path d="m232.48 184.59h-51.03c.14 1.88.24 3.78.24 5.69 0 37.45-28.15 68.3-64.44 72.59 1.04 4.91 1.59 9.99 1.59 15.21 0 32.48-21.2 60.01-50.51 69.53 6.13 11.76 9.61 25.12 9.61 39.29 0 23.83 17.65 18.25 1.88 33.7-8.64-7.64-15.88-5.7-23.41-14.43-1.37-1.59 1.52-16.752-2.79-16.592-2.41-3.37-4.73-6.8-6.97-10.28-4.08-6.36-14.16 1.842-17.68-4.888-18.5-35.41-28.97-75.69-28.97-118.41 0-12.56.91-24.91 2.66-36.99 9.88-7.22 21.63-12.01 34.39-13.52-1.04-4.91-1.59-9.99-1.59-15.21 0-40.38 32.73-73.11 73.11-73.11h92.08c17.58 0 31.83 14.25 31.83 31.82z" fill="#ac80dd"/><path d="m86.33 190.28c0 5.22.56 10.3 1.6 15.21-36.29 4.29-64.45 35.14-64.45 72.59 0 8.82 1.57 17.29 4.44 25.12-7.79 1.46-15.2 3.97-22.08 7.39-3.82-17.59-5.84-35.86-5.84-54.59 0-12.56.91-24.91 2.66-36.99 9.88-7.22 21.63-12.01 34.39-13.52-1.04-4.91-1.59-9.99-1.59-15.21 0-40.38 32.73-73.11 73.11-73.11h50.88c-40.38 0-73.12 32.73-73.12 73.11z" fill="#9d66d5"/><path d="m463.292 249.098c0 7.62-6.18 13.8-13.8 13.8h-4.97v15.96c0 8.08-3.28 15.39-8.57 20.69s-12.61 8.57-20.68 8.57c-15.52 0-28.21-12.09-29.19-27.36l-65.13 7.61c-6.82 17.12-18.59 31.72-33.54 42.05s-33.09 16.38-52.64 16.38c-51.21 0-92.73-41.52-92.73-92.73v-100.46h269.92c17.98 0 32.56 14.58 32.56 32.56v49.13h4.97c7.62 0 13.8 6.18 13.8 13.8z" fill="#ffddf1"/><path d="m248.97 304.03v207.87c-3.3-.09-6.59-.24-9.86-.45-.04-.01-.09-.01-.14-.01 0 0-.01 0-.02 0-57.54-3.78-109.9-26.58-150.83-62.18-15.3-13.29-29-28.37-40.77-44.92-2.41-3.37-4.73-6.8-6.97-10.28l101.67-240.45z" fill="#ffddf1"/><path d="m163.67 294.87-75.55 154.39c-18.41-16-34.51-34.59-47.74-55.2-4.08-6.36-7.89-12.92-11.41-19.65l113.08-220.8 18.48 26z" fill="#ffceec"/><path d="m30.468 153.606c0 33.687 27.309 60.996 60.996 60.996s60.996-27.309 60.996-60.996z" fill="#ffceec"/><path d="m396.578 203.283c-6.097 0-11.039-4.942-11.039-11.039 0-6.097 4.942-11.039 11.039-11.039 6.097 0 11.039 4.942 11.039 11.039 0 6.097-4.942 11.039-11.039 11.039z" fill="#eaaadd"/><path d="m428.52 203.283c-6.097 0-11.039-4.942-11.039-11.039 0-6.097 4.942-11.039 11.039-11.039 6.097 0 11.039 4.942 11.039 11.039 0 6.097-4.943 11.039-11.039 11.039z" fill="#eaaadd"/><path d="m247.882 345.876c-4.28.61-8.66.92-13.11.92-51.21 0-92.73-41.52-92.73-92.73v-100.46h26.16v100.46c0 46.78 34.65 85.47 79.68 91.81z" fill="#ffceec"/><path d="m444.522 262.898v15.45h-28.15c-2.13 0-4.07-.86-5.47-2.26s-2.26-3.34-2.26-5.47c0-4.26 3.46-7.72 7.73-7.72z" fill="#eaaadd"/><circle cx="216.358" cy="149.616" fill="#f9f6f9" r="34.667"/><circle cx="217.257" cy="149.616" fill="#453d81" r="20.221"/><circle cx="216.358" cy="196.726" fill="#ffddf1" r="34.667"/></g><path d="m335.296 401.246 23.275 28.599-23.275 20.618-14.636-.002v53.3c-15.65 4.08-31.88 6.71-48.55 7.74v-78.51c0-17.53 14.21-31.74 31.75-31.74z" fill="#ffddf1"/><path d="m328.94 401.25c-17.53 0-31.75 14.21-31.75 31.74v75.71c-8.24 1.34-16.6 2.28-25.08 2.8v-78.51c0-17.53 14.21-31.74 31.74-31.74z" fill="#ffceec"/><path d="m376.072 469.57c-18.453 0-33.465-15.013-33.465-33.466v-23.436c0-18.453 15.012-33.466 33.465-33.466s33.466 15.013 33.466 33.466v23.436c.001 18.453-15.012 33.466-33.466 33.466zm0-77.794c-11.52 0-20.891 9.372-20.891 20.892v23.436c0 11.52 9.372 20.892 20.891 20.892 11.52 0 20.892-9.372 20.892-20.892v-23.436c.001-11.52-9.372-20.892-20.892-20.892z" fill="#90d8f9"/><path d="m335.296 401.246h31.924v49.216h-31.924z" fill="#453d81"/><path d="m456.364 366.514h-67.398c-5.306 0-9.608 4.302-9.608 9.608v95.473c0 5.306 4.302 9.608 9.608 9.608h67.398c5.306 0 9.608-4.302 9.608-9.608v-95.473c0-5.306-4.302-9.608-9.608-9.608z" fill="#b1e4f9"/><path d="m418.535 481.204h-29.576c-5.299 0-9.601-4.302-9.601-9.61v-95.472c0-5.308 4.302-9.61 9.601-9.61h29.576c-5.308 0-9.61 4.302-9.61 9.61v95.472c0 5.308 4.302 9.61 9.61 9.61z" fill="#90d8f9"/></g></svg>