<svg id="Capa_1" enable-background="new 0 0 512 512" height="512" viewBox="0 0 512 512" width="512" xmlns="http://www.w3.org/2000/svg"><g><path d="m512 256c0 132.276-100.322 241.12-229.029 254.596-8.863.928-17.861-74.66-26.971-74.66-124.742 0-187.09-49.659-251.379-131.265-3.033-15.757-4.621-32.028-4.621-48.671 0-141.385 114.615-256 256-256s256 114.615 256 256z" fill="#8cc"/><g><circle cx="329.836" cy="149.616" fill="#f9f6f9" r="34.667"/><circle cx="325.192" cy="149.616" fill="#453d81" r="20.221"/><path d="m237.389 50.243c-20.937 0-37.91 16.973-37.91 37.91v45.891h75.819v-45.891c.001-20.937-16.972-37.91-37.909-37.91z" fill="#ac80dd"/><path d="m248.7 51.953c-15.42 4.82-26.61 19.21-26.61 36.2v45.89h-22.61v-45.89c0-20.93 16.97-37.91 37.91-37.91 3.94 0 7.73.6 11.31 1.71z" fill="#9d66d5"/><g><path d="m310.314 165.988-8.354-159.122c-.399-7.595-10.742-9.515-13.839-2.568l-64.895 145.528z" fill="#b1e4f9"/><g fill="#90d8f9"><path d="m296.05.128c-.812-.151-1.962 1.517-2.869 5.11l-38.043 150.511-31.912-5.923 64.888-145.529c1.551-3.473 4.919-4.729 7.936-4.169z"/><path d="m230.655 138.815c-3.965-.736-7.227-3.882-7.913-8.091-.873-5.361 2.765-10.415 8.126-11.289l75.286-12.269c5.363-.874 10.415 2.765 11.289 8.126s-2.765 10.415-8.126 11.289l-75.286 12.269c-1.152.187-2.29.166-3.376-.035z"/><path d="m252.849 89.065c-3.964-.736-7.226-3.882-7.912-8.09-.874-5.361 2.763-10.416 8.124-11.29l50.684-8.266c5.36-.874 10.415 2.763 11.29 8.124.874 5.361-2.763 10.416-8.124 11.29l-50.684 8.266c-1.153.188-2.292.167-3.378-.034z"/><path d="m275.034 39.312c-3.965-.736-7.227-3.883-7.913-8.092-.873-5.361 2.765-10.415 8.126-11.288l26.104-4.252c5.36-.875 10.415 2.765 11.288 8.126s-2.765 10.415-8.126 11.288l-26.104 4.252c-1.152.188-2.29.167-3.375-.034z"/></g></g><path d="m167.134 57.892c29.306 0 53.064 23.758 53.064 53.064s-23.758 53.064-53.064 53.064z" fill="#ffceec"/><path d="m266.48 184.59h-51.03c.14 1.88.24 3.78.24 5.69 0 37.45-28.15 68.3-64.44 72.59 1.04 4.91 1.59 9.99 1.59 15.21 0 32.48-21.2 60.01-50.51 69.53 6.13 11.76-50.23 63.39-54.81 56.98-20.93-29.31-35.83-63.22-42.89-99.92 2.1-.58 4.24-1.07 6.41-1.47-2.87-7.83-4.43-16.3-4.43-25.12 0-37.45 28.15-68.3 64.44-72.59-1.04-4.91-1.59-9.99-1.59-15.21 0-40.38 32.73-73.11 73.11-73.11h92.08c17.58 0 31.83 14.25 31.83 31.82z" fill="#ac80dd"/><path d="m282.97 304.03v206.56c-4.51.47-9.06.83-13.64 1.06-4.41.23-8.86-38.912-13.33-38.912-20.17 0-39.8 36.932-58.62 32.512-53.52-12.53-100.57-41.86-135.29-82.12l113.96-269.52z" fill="#ffddf1"/><path d="m144.838 476.728c-3.123 0-5.655-2.532-5.655-5.655v-36.91h11.31v36.91c0 3.124-2.532 5.655-5.655 5.655z" fill="#c3247d"/><path d="m165.234 476.728c-3.123 0-5.655-2.532-5.655-5.655v-36.91h11.31v36.91c0 3.124-2.532 5.655-5.655 5.655z" fill="#c3247d"/><path d="m185.187 476.728c-3.123 0-5.655-2.532-5.655-5.655v-36.91h11.31v36.91c-.001 3.124-2.532 5.655-5.655 5.655z" fill="#c3247d"/><path d="m197.67 294.87-84.84 173.38c-18.85-12.75-35.92-27.94-50.74-45.12-5.13-5.95-9.99-12.13-14.57-18.54l128.53-250.98 18.48 26z" fill="#ffceec"/><path d="m139.184 335.515h71.943v118.933h-71.943z" fill="#da387d"/><path d="m139.184 335.515h26.712v118.933h-26.712z" fill="#c3247d"/><path d="m269.33 365.44v146.21c-4.41.23-8.86.35-13.33.35-10.8 0-21.45-.67-31.9-1.98-9.06-1.11-17.98-2.72-26.72-4.77v-139.81z" fill="#da387d"/><path d="m224.1 365.44v144.58c-9.06-1.11-17.98-2.72-26.72-4.77v-139.81z" fill="#c3247d"/><path d="m263.555 427.428-177.383-104.77c-9.606-5.674-12.793-18.06-7.12-27.666l21.057-35.651c5.674-9.606 18.06-12.793 27.666-7.12l177.383 104.77c9.606 5.674 12.793 18.06 7.12 27.666l-21.057 35.651c-5.674 9.606-18.061 12.794-27.666 7.12z" fill="#da387d"/><path d="m120.33 190.28c0 5.22.56 10.3 1.6 15.21-36.29 4.29-64.45 35.14-64.45 72.59 0 8.82 1.57 17.29 4.44 25.12-20.08 3.75-37.68 14.54-50.14 29.72-2.91-9.2-5.3-18.63-7.15-28.25 2.1-.58 4.24-1.07 6.41-1.47-2.87-7.83-4.43-16.3-4.43-25.12 0-37.45 28.15-68.3 64.44-72.59-1.04-4.91-1.59-9.99-1.59-15.21 0-40.38 32.73-73.11 73.11-73.11h50.88c-40.38 0-73.12 32.73-73.12 73.11z" fill="#9d66d5"/><path d="m146.303 363.181-60.134-35.518c-9.6-5.67-12.79-18.065-7.12-27.666l21.059-35.655c5.67-9.6 18.065-12.79 27.666-7.12l60.134 35.518c-9.609-5.676-21.995-2.481-27.666 7.12l-21.059 35.655c-5.67 9.6-2.489 21.99 7.12 27.666z" fill="#c3247d"/><path d="m64.468 153.606c0 33.687 27.309 60.996 60.996 60.996s60.996-27.309 60.996-60.996z" fill="#ffceec"/><path d="m430.578 203.283c-6.097 0-11.039-4.942-11.039-11.039 0-6.097 4.942-11.039 11.039-11.039 6.097 0 11.039 4.942 11.039 11.039 0 6.097-4.942 11.039-11.039 11.039z" fill="#eaaadd"/><path d="m462.52 203.283c-6.097 0-11.039-4.942-11.039-11.039 0-6.097 4.942-11.039 11.039-11.039 6.097 0 11.039 4.942 11.039 11.039 0 6.097-4.943 11.039-11.039 11.039z" fill="#eaaadd"/><path d="m445.962 153.608h-269.92v100.46c0 51.21 41.52 92.73 92.73 92.73 19.55 0 37.69-6.05 52.64-16.38 8.209-5.672 15.45-12.638 21.448-20.594h33.809v20.258c0 11.515 9.335 20.849 20.849 20.849h60.154c11.515 0 20.849-9.335 20.849-20.849v-51.224-15.617-77.073c.001-17.98-14.579-32.56-32.559-32.56z" fill="#ffddf1"/><path d="m281.882 345.876c-4.28.61-8.66.92-13.11.92-51.21 0-92.73-41.52-92.73-92.73v-100.46h26.16v100.46c0 46.78 34.65 85.47 79.68 91.81z" fill="#ffceec"/><circle cx="250.358" cy="149.616" fill="#f9f6f9" r="34.667"/><circle cx="251.257" cy="149.616" fill="#453d81" r="20.221"/><path d="m411.584 329.378h-14.914v42.734c0 4.118 3.339 7.457 7.457 7.457s7.457-3.339 7.457-7.457v15.274c0 4.118 3.339 7.457 7.457 7.457s7.457-3.338 7.457-7.457v-58.007h-14.914z" fill="#b1e4f9"/><path d="m458.52 263.24v67.69h-61.85v-66.83c0-11.3 5.87-21.33 14.63-26.97 2.93-1.89 6.19-3.29 9.66-4.08 1.95-.44 3.96-.69 6.03-.73.2 0 .41-.01.61-.01 2.28 0 4.5.25 6.63.72 3.48.76 6.73 2.11 9.66 3.93 8.78 5.47 14.63 15.21 14.63 26.28z" fill="#f9f6f9"/><path d="m396.67 275.208h61.85v9.313h-61.85z" fill="#dddaec"/><path d="m462.52 192.244h-11.04v31.631c0 3.048 2.471 5.52 5.52 5.52s5.52-2.471 5.52-5.52v19.077c0 3.048 2.471 5.519 5.52 5.519s5.52-2.471 5.52-5.519v-50.708z" fill="#b1e4f9"/><path d="m69.986 153.606h14.995v42.651c0 4.105-3.163 7.685-7.267 7.808-4.246.127-7.728-3.277-7.728-7.494v25.599c0 4.105-3.163 7.685-7.267 7.808-4.246.127-7.728-3.276-7.728-7.494v-59.604c0-5.123 4.153-9.275 9.275-9.275h5.72z" fill="#b1e4f9"/><g fill="#dddaec"><path d="m420.96 233.05v97.88h-9.66v-93.8c2.93-1.89 6.19-3.29 9.66-4.08z"/><path d="m443.89 236.96v93.97h-9.66v-97.9c3.48.76 6.73 2.11 9.66 3.93z"/></g><g fill="#b1e4f9"><path d="m430.578 192.244h-11.039v26.116c0 3.048 2.471 5.52 5.52 5.52 3.048 0 5.52-2.471 5.52-5.52v10.764c0 3.048 2.471 5.519 5.52 5.519s5.52-2.471 5.52-5.519v-36.88z"/><path d="m423.387 74.121-7.797-4.501 7.797-4.501c3.794-2.19 5.093-7.041 2.903-10.834-2.19-3.794-7.041-5.093-10.835-2.903l-7.797 4.502v-9.003c0-4.38-3.551-7.931-7.931-7.931-4.38 0-7.931 3.551-7.931 7.931v9.003l-7.797-4.502c-3.794-2.19-8.644-.89-10.835 2.903-2.19 3.793-.89 8.644 2.903 10.834l7.797 4.501-7.797 4.501c-3.794 2.19-5.093 7.041-2.903 10.834 2.19 3.793 7.041 5.093 10.835 2.903l7.797-4.501v9.003c0 4.38 3.551 7.931 7.931 7.931 4.38 0 7.931-3.551 7.931-7.931v-9.003l7.797 4.501c3.794 2.19 8.644.89 10.835-2.903 2.19-3.793.89-8.643-2.903-10.834z"/><path d="m144.102 356.194-7.797-4.501 7.797-4.501c3.794-2.19 5.093-7.041 2.903-10.834-2.19-3.794-7.041-5.093-10.835-2.903l-7.797 4.502v-9.003c0-4.38-3.551-7.931-7.931-7.931-4.38 0-7.931 3.551-7.931 7.931v9.003l-7.797-4.502c-3.794-2.19-8.644-.89-10.835 2.903-2.19 3.793-.89 8.644 2.903 10.834l7.797 4.501-7.797 4.501c-3.794 2.19-5.093 7.041-2.903 10.834 2.19 3.793 7.041 5.093 10.835 2.903l7.797-4.501v9.003c0 4.38 3.551 7.931 7.931 7.931 4.38 0 7.931-3.551 7.931-7.931v-9.003l7.797 4.501c3.794 2.19 8.644.89 10.835-2.903 2.19-3.793.89-8.643-2.903-10.834z"/><path d="m94.206 69.365-7.797-4.501 7.797-4.501c3.794-2.19 5.093-7.041 2.903-10.834-2.19-3.794-7.041-5.093-10.835-2.903l-7.797 4.502v-9.003c0-4.38-3.551-7.931-7.931-7.931-4.38 0-7.931 3.551-7.931 7.931v9.003l-7.797-4.502c-3.794-2.19-8.644-.89-10.835 2.903-2.19 3.793-.89 8.644 2.903 10.834l7.797 4.501-7.797 4.501c-3.794 2.19-5.093 7.041-2.903 10.834 2.19 3.793 7.041 5.093 10.835 2.903l7.797-4.501v9.003c0 4.38 3.551 7.931 7.931 7.931 4.38 0 7.931-3.551 7.931-7.931v-9.003l7.797 4.501c3.794 2.19 8.644.89 10.835-2.903 2.191-3.793.891-8.643-2.903-10.834z"/><path d="m398.297 438.997-7.797-4.501 7.797-4.501c3.794-2.19 5.093-7.041 2.903-10.834-2.19-3.794-7.041-5.093-10.835-2.903l-7.797 4.502v-9.003c0-4.38-3.551-7.931-7.931-7.931-4.38 0-7.931 3.551-7.931 7.931v9.003l-7.797-4.502c-3.794-2.19-8.644-.89-10.835 2.903-2.19 3.793-.89 8.644 2.903 10.834l7.797 4.501-7.797 4.501c-3.794 2.19-5.093 7.041-2.903 10.834 2.19 3.793 7.041 5.093 10.835 2.903l7.797-4.501v9.003c0 4.38 3.551 7.931 7.931 7.931 4.38 0 7.931-3.551 7.931-7.931v-9.003l7.797 4.501c3.794 2.19 8.644.89 10.835-2.903 2.191-3.793.891-8.644-2.903-10.834z"/><path d="m182.093 121.671-7.797-4.501 7.797-4.501c3.794-2.19 5.093-7.041 2.903-10.834-2.19-3.794-7.041-5.093-10.835-2.903l-7.797 4.502v-9.003c0-4.38-3.551-7.931-7.931-7.931-4.38 0-7.931 3.551-7.931 7.931v9.003l-7.797-4.502c-3.794-2.19-8.644-.89-10.835 2.903-2.19 3.793-.89 8.644 2.903 10.834l7.797 4.501-7.797 4.501c-3.794 2.19-5.093 7.041-2.903 10.834 2.19 3.793 7.041 5.093 10.835 2.903l7.797-4.501v9.003c0 4.38 3.551 7.931 7.931 7.931 4.38 0 7.931-3.551 7.931-7.931v-9.003l7.797 4.501c3.794 2.19 8.644.89 10.835-2.903 2.19-3.793.89-8.643-2.903-10.834z"/></g><circle cx="250.358" cy="190.416" fill="#ffddf1" r="34.667"/><circle cx="220.77" cy="209.365" fill="#da387d" r="31.259"/></g></g></svg>