<svg id="Capa_1" enable-background="new 0 0 512 512" height="512" viewBox="0 0 512 512" width="512" xmlns="http://www.w3.org/2000/svg"><g><path d="m512 256c0 101.12-58.64 188.55-143.76 230.14-7.435 3.635-21.735-15.247-29.553-12.335-7.819 2.913-9.157 27.62-17.317 29.765-11.7 3.08-23.73 5.36-36.02 6.75-1.93.23-285.12-267.06-284.65-273.34 9.73-132.5 120.32-236.98 255.3-236.98 141.38 0 256 114.62 256 256z" fill="#78c2a4"/><g><path d="m382.47 390.75c0 34.37-25.64 39.14-20.85 72.63 1.41 9.83 3.86 16.97 6.62 22.76-14.87 7.27-30.55 13.14-46.87 17.43-6.52-13.89-14.79-18.94-14.79-44.06 0-34.37 21.12-34.37 21.12-68.74 0-34.38-21.12-34.38-21.12-68.75s21.12-34.37 21.12-68.75-26.08-39.76-20.78-73.04l54.77 8.58c5.3 33.28 20.78 30.08 20.78 64.45s-21.12 34.37-21.12 68.74c0 34.38 21.12 34.38 21.12 68.75z" fill="#b1e4f9"/><circle cx="331.24" cy="172.498" fill="#f9f6f9" r="47.127"/><circle cx="325.025" cy="171.398" fill="#453d81" r="27.489"/><path d="m255.263 41.81c-21.766-3.854-42.534 10.666-46.388 32.432l-8.447 47.707 78.82 13.956 8.447-47.707c3.854-21.765-10.667-42.534-32.432-46.388z" fill="#ac80dd"/><path d="m266.706 45.67c-16.918 2.172-31.199 15.072-34.327 32.734l-8.447 47.706-23.505-4.162 8.447-47.706c3.853-21.758 24.62-36.287 46.389-32.432 4.096.725 7.926 2.047 11.443 3.86z" fill="#9d66d5"/><g><path d="m309.768 175.56 20.606-166.957c.984-7.969-9.415-11.869-13.914-5.218l-94.251 139.342z" fill="#b1e4f9"/><g fill="#90d8f9"><path d="m325.47.51c-.817-.306-2.319 1.215-3.923 4.784l-67.254 149.464-32.084-12.031 94.243-139.344c2.253-3.325 5.985-4.011 9.018-2.873z"/><path d="m231.958 132.648c-3.986-1.495-6.798-5.366-6.737-9.868.079-5.734 4.791-10.318 10.525-10.24l80.524 1.104c5.736.079 10.318 4.792 10.24 10.525-.079 5.734-4.791 10.318-10.525 10.24l-80.524-1.104c-1.232-.017-2.411-.248-3.503-.657z"/><path d="m264.188 85.014c-3.986-1.495-6.798-5.365-6.736-9.866.078-5.734 4.789-10.32 10.524-10.241l54.211.736c5.733.078 10.319 4.79 10.241 10.524s-4.789 10.32-10.524 10.241l-54.211-.737c-1.232-.016-2.413-.248-3.505-.657z"/><path d="m296.409 37.376c-3.986-1.495-6.799-5.367-6.736-9.869.079-5.734 4.791-10.318 10.526-10.239l27.92.385c5.733.077 10.318 4.791 10.239 10.526-.079 5.734-4.791 10.318-10.526 10.239l-27.92-.385c-1.232-.017-2.412-.248-3.503-.657z"/></g></g><path d="m180.82 36.829c30.466 5.395 50.791 34.466 45.396 64.932s-34.466 50.791-64.932 45.396z" fill="#ffceec"/><path d="m267.94 170.68h-53.87c.14 1.99.25 3.99.25 6.01 0 39.54-29.72 72.11-68.03 76.64 1.09 5.18 1.68 10.54 1.68 16.05 0 34.29-22.39 63.36-53.33 73.41 6.47 12.42 10.15 26.52 10.15 41.48 0 25.16 18.63 19.27 1.98 35.58-9.12-8.07-16.76-6.02-24.71-15.24-3.77-4.37-3.767-12.615-16.057-11.945-2.41-3.34-22.853 5.675-25.093 2.205-25.88-40-40.91-87.68-40.91-138.87 0-6.4.23-12.74.7-19.02 11.02-23.8 33.82-41.03 60.92-44.23-1.1-5.19-1.68-10.55-1.68-16.06 0-42.63 34.55-77.19 77.18-77.19h97.22c18.56 0 33.6 15.05 33.6 33.6z" fill="#ac80dd"/><path d="m113.64 176.69c0 5.51.59 10.87 1.69 16.06-38.31 4.53-68.04 37.1-68.04 76.63 0 9.32 1.66 18.26 4.69 26.52-16.94 3.16-32.21 11.08-44.37 22.31-4.97-19.92-7.61-40.75-7.61-62.21 0-6.4.23-12.74.7-19.02 11.02-23.8 33.82-41.03 60.92-44.23-1.1-5.19-1.68-10.55-1.68-16.06 0-42.63 34.55-77.19 77.18-77.19h53.72c-42.63 0-77.2 34.56-77.2 77.19z" fill="#9d66d5"/><path d="m488.847 296.377c-1.403 7.922-8.965 13.209-16.886 11.806l-5.167-.915-2.938 16.592c-1.487 8.4-6.243 15.395-12.718 19.931s-14.687 6.588-23.076 5.103c-16.134-2.857-27.101-17.761-25.309-33.816l-69.108-4.078c-10.241 16.542-25.165 29.553-42.608 37.54s-37.415 10.937-57.738 7.338c-53.237-9.427-88.757-60.233-79.331-113.469l18.492-104.436 280.602 49.686c18.692 3.31 31.165 21.151 27.855 39.842l-9.044 51.074 5.167.915c7.923 1.403 13.21 8.965 11.807 16.887z" fill="#ffddf1"/><path d="m285.35 296.78v213.54c-1.93.23-3.88.43-5.83.6-7.74.72-31.919-15.249-39.849-15.249-11.5 0-6.501 15.569-17.601 14.089-67.36-8.92-126.46-44.03-166.72-94.77l117.12-277.01z" fill="#ffddf1"/><path d="m195.29 287.11-87.07 177.94c-19.91-14.1-37.72-30.97-52.87-50.06-5.13-6.46-9.95-13.17-14.44-20.12l131.56-256.89 19.51 27.44z" fill="#ffceec"/><path d="m56.471 117.433c-6.201 35.02 17.162 68.436 52.182 74.637s68.437-17.162 74.637-52.182z" fill="#ffceec"/><path d="m427.926 236.468c-6.338-1.122-10.566-7.17-9.444-13.508 1.122-6.338 7.17-10.566 13.508-9.444 6.338 1.122 10.566 7.17 9.444 13.508-1.122 6.338-7.17 10.566-13.508 9.444z" fill="#eaaadd"/><path d="m461.132 242.348c-6.338-1.122-10.566-7.17-9.444-13.508 1.122-6.338 7.17-10.566 13.508-9.444 6.338 1.122 10.566 7.17 9.444 13.508-1.122 6.338-7.17 10.566-13.508 9.444z" fill="#eaaadd"/><path d="m284.201 340.96c-4.518.644-9.143.971-13.841.971-54.065 0-97.9-43.835-97.9-97.899v-106.06h27.619v106.06c0 49.388 36.582 90.235 84.122 96.928z" fill="#ffceec"/><path d="m466.794 307.268-2.844 16.061-29.264-5.182c-2.214-.392-4.073-1.643-5.27-3.356-1.198-1.713-1.735-3.888-1.343-6.102.784-4.429 5.018-7.389 9.457-6.603z" fill="#eaaadd"/><g><circle cx="248.618" cy="157.869" fill="#f9f6f9" r="47.127"/><circle cx="249.821" cy="158.082" fill="#453d81" r="27.489"/></g><path d="m280.64 390.75c0 34.37-25.63 39.14-20.84 72.63 3.83 26.76 15.41 33.59 19.72 47.54-7.74.72-15.59 1.08-23.52 1.08-11.5 0-22.83-.76-33.93-2.24-6.66-19.08-17.31-21.74-17.31-50.25 0-34.37 21.11-34.37 21.11-68.74 0-34.38-21.11-34.38-21.11-68.75s21.11-34.37 21.11-68.75c0-29.262-18.893-37.515-21.25-59.844-.412-3.906 26.323 6.199 26.323 6.199l28.917-10.815c5.31 33.28 20.78 30.08 20.78 64.45s-21.12 34.37-21.12 68.74c0 34.38 21.12 34.38 21.12 68.75z" fill="#b1e4f9"/><path d="m286.292 181.761c-7.355 0-13.869 3.535-17.988 8.982-4.119-5.447-10.632-8.982-17.988-8.982s-13.868 3.535-17.988 8.982c-4.119-5.447-10.633-8.982-17.988-8.982-5.376 0-10.312 1.88-14.188 5.018-7.216 5.842-2.975 17.546 6.309 17.546h87.71c9.284 0 13.525-11.704 6.309-17.546-3.876-3.139-8.813-5.018-14.188-5.018z" fill="#90d8f9"/><g fill="none" stroke="#333d3d" stroke-linecap="round" stroke-miterlimit="10" stroke-width="20"><path d="m213.442 121.623c15.656 2.772 30.595-7.672 33.367-23.328"/><path d="m373.951 150.044c-15.656-2.772-26.1-17.711-23.328-33.367"/></g></g></g></svg>