<svg id="Capa_1" enable-background="new 0 0 512 512" height="512" viewBox="0 0 512 512" width="512" xmlns="http://www.w3.org/2000/svg"><g><path d="m512 256c0 132.276-100.322 241.12-229.029 254.596-8.863.928-70.204-114.606-116.807-163.288-32.685-34.143-151.122 8.374-160.962-39.715-3.411-16.665-5.202-33.92-5.202-51.593 0-141.385 114.615-256 256-256s256 114.615 256 256z" fill="#8cc"/><g><path d="m374.978 122.007c-11.352-11.352-29.617-11.523-41.212-.569-11.595-10.954-29.86-10.783-41.212.569-11.342 11.342-11.522 29.584-.598 41.18l-.032.032.63.63 41.212 41.212 41.842-41.842-.032-.032c10.924-11.596 10.744-29.838-.598-41.18z" fill="#da387d"/><path d="m333.754 198.057c-4.32-.01-8.64-1.66-11.93-4.95l-29.27-29.26-.63-.63.04-.03c-5.37-5.7-8.06-13-8.06-20.3 0-7.56 2.88-15.11 8.65-20.88 7.69-7.69 18.55-10.25 28.36-7.69-2.27 1.28-4.42 3.84-6.2 7.69-2.67 5.77-4 13.32-4 20.88 0 7.3 1.24 14.6 3.72 20.3l-.01.03.29.63 13.53 29.26c1.52 3.29 3.51 4.94 5.51 4.95z" fill="#c3247d"/><path d="m237.389 50.243c-20.937 0-37.91 16.973-37.91 37.91v45.891h75.819v-45.891c.001-20.937-16.972-37.91-37.909-37.91z" fill="#ac80dd"/><path d="m248.7 51.953c-15.42 4.82-26.61 19.21-26.61 36.2v45.89h-22.61v-45.89c0-20.93 16.97-37.91 37.91-37.91 3.94 0 7.73.6 11.31 1.71z" fill="#9d66d5"/><g><path d="m310.314 165.988-8.354-159.122c-.399-7.595-10.742-9.515-13.839-2.568l-64.895 145.528z" fill="#f9f6f9"/><g fill="#ebebeb"><path d="m296.05.128c-.812-.151-1.962 1.517-2.869 5.11l-38.043 150.511-31.912-5.923 64.888-145.529c1.551-3.473 4.919-4.729 7.936-4.169z"/><path d="m230.655 138.815c-3.965-.736-7.227-3.882-7.913-8.091-.873-5.361 2.765-10.415 8.126-11.289l75.286-12.269c5.363-.874 10.415 2.765 11.289 8.126s-2.765 10.415-8.126 11.289l-75.286 12.269c-1.152.187-2.29.166-3.376-.035z"/><path d="m252.849 89.065c-3.964-.736-7.226-3.882-7.912-8.09-.874-5.361 2.763-10.416 8.124-11.29l50.684-8.266c5.36-.874 10.415 2.763 11.29 8.124.874 5.361-2.763 10.416-8.124 11.29l-50.684 8.266c-1.153.188-2.292.167-3.378-.034z"/><path d="m275.034 39.312c-3.965-.736-7.227-3.883-7.913-8.092-.873-5.361 2.765-10.415 8.126-11.288l26.104-4.252c5.36-.875 10.415 2.765 11.288 8.126s-2.765 10.415-8.126 11.288l-26.104 4.252c-1.152.188-2.29.167-3.375-.034z"/></g></g><path d="m167.134 57.892c29.306 0 53.064 23.758 53.064 53.064s-23.758 53.064-53.064 53.064z" fill="#ffceec"/><path d="m266.48 184.59h-51.03c.14 1.88.24 3.78.24 5.69 0 37.45-28.15 68.3-64.44 72.59 1.04 4.91 1.59 9.99 1.59 15.21 0 32.48-21.2 60.01-50.51 69.53 6.13 11.76 9.61 25.12 9.61 39.29 0 23.83 17.652 18.248 1.882 33.698-8.64-7.64-15.878-5.7-23.408-14.43-5.13-5.95-38.314 4.832-42.894-1.578-20.93-29.31-35.83-63.22-42.89-99.92 2.1-.58 4.24-1.07 6.41-1.47-2.87-7.83-4.43-16.3-4.43-25.12 0-37.45 28.15-68.3 64.44-72.59-1.04-4.91-1.59-9.99-1.59-15.21 0-40.38 32.73-73.11 73.11-73.11h92.08c17.58 0 31.83 14.25 31.83 31.82z" fill="#ac80dd"/><path d="m120.33 190.28c0 5.22.56 10.3 1.6 15.21-36.29 4.29-64.45 35.14-64.45 72.59 0 8.82 1.57 17.29 4.44 25.12-20.08 3.75-37.68 14.54-50.14 29.72-2.91-9.2-5.3-18.63-7.15-28.25 2.1-.58 4.24-1.07 6.41-1.47-2.87-7.83-4.43-16.3-4.43-25.12 0-37.45 28.15-68.3 64.44-72.59-1.04-4.91-1.59-9.99-1.59-15.21 0-40.38 32.73-73.11 73.11-73.11h50.88c-40.38 0-73.12 32.73-73.12 73.11z" fill="#9d66d5"/><path d="m478.522 186.168c0-17.98-14.58-32.56-32.56-32.56h-269.92v100.46c0 51.21 41.52 92.73 92.73 92.73 19.55 0 37.69-6.05 52.64-16.38 8.254-5.703 15.532-12.714 21.55-20.726l44.706-5.616c4.553 20.828 23.133 36.473 45.308 36.473 25.577 0 46.386-20.808 46.386-46.385z" fill="#ffddf1"/><path d="m282.97 304.03v206.56c-8.86.93-17.86 1.41-26.97 1.41-77.51 0-146.97-34.45-193.91-88.87l113.96-269.52z" fill="#ffddf1"/><path d="m197.67 294.87-84.84 173.38c-18.85-12.75-35.92-27.94-50.74-45.12-5.13-5.95-9.99-12.13-14.57-18.54l128.53-250.98 18.48 26z" fill="#ffceec"/><path d="m64.468 153.606c0 33.687 27.309 60.996 60.996 60.996s60.996-27.309 60.996-60.996z" fill="#ffceec"/><path d="m462.52 203.283c-6.097 0-11.039-4.942-11.039-11.039 0-6.097 4.942-11.039 11.039-11.039 6.097 0 11.039 4.942 11.039 11.039 0 6.097-4.943 11.039-11.039 11.039z" fill="#eaaadd"/><path d="m281.882 345.876c-4.28.61-8.66.92-13.11.92-51.21 0-92.73-41.52-92.73-92.73v-100.46h26.16v100.46c0 46.78 34.65 85.47 79.68 91.81z" fill="#ffceec"/><path d="m288.813 122.007c-11.352-11.352-29.617-11.523-41.212-.569-11.595-10.954-29.86-10.783-41.212.569-11.342 11.342-11.522 29.584-.598 41.18l-.032.032.63.63 29.264 29.264c6.599 6.599 17.297 6.599 23.896 0l29.894-29.894-.032-.032c10.924-11.596 10.744-29.838-.598-41.18z" fill="#da387d"/><path d="m247.583 198.063c-4.32-.01-8.64-1.66-11.93-4.95l-29.27-29.26-.63-.63.04-.03c-5.37-5.7-8.06-13-8.06-20.3 0-7.56 2.88-15.11 8.65-20.88 7.69-7.69 18.55-10.25 28.36-7.69-2.27 1.28-4.42 3.84-6.2 7.69-2.67 5.77-4 13.32-4 20.88 0 7.3 1.24 14.6 3.72 20.3l-.01.03.29.63 13.53 29.26c1.52 3.29 3.51 4.94 5.51 4.95z" fill="#c3247d"/><g><g fill="#b1e4f9"><path d="m114.995 70.765c-7.922-7.922-20.669-8.042-28.76-.397-8.092-7.645-20.838-7.525-28.76.397-7.915 7.915-8.041 20.646-.417 28.738l-.022.022.439.439 20.422 20.423c4.605 4.605 12.071 4.605 16.676 0l20.862-20.862-.022-.022c7.623-8.093 7.497-20.823-.418-28.738z"/><path d="m429.078 374.13c-11.631-11.631-30.347-11.807-42.227-.583-11.88-11.224-30.596-11.048-42.227.583-11.621 11.621-11.806 30.313-.613 42.195l-.033.033.645.645 29.985 29.985c6.761 6.761 17.723 6.761 24.484 0l30.63-30.63-.032-.033c11.194-11.882 11.009-30.573-.612-42.195z"/><path d="m158.593 7.384c-5.917-5.917-15.437-6.006-21.48-.297-6.043-5.709-15.563-5.62-21.48.297-5.911 5.911-6.006 15.419-.312 21.463l-.017.017.328.328 15.253 15.253c3.439 3.439 9.015 3.439 12.455 0l15.581-15.581-.017-.017c5.695-6.044 5.601-15.552-.311-21.463z"/></g><path d="m179.881 422.414c-5.917-5.917-15.437-6.006-21.48-.297-6.043-5.709-15.563-5.62-21.48.297-5.911 5.911-6.006 15.419-.312 21.463l-.017.017.328.328 15.253 15.253c3.439 3.439 9.015 3.439 12.455 0l15.581-15.581-.017-.017c5.695-6.044 5.601-15.552-.311-21.463z" fill="#8cc"/><path d="m144.811 362.71c-8.736-8.736-22.793-8.868-31.716-.438-8.923-8.43-22.98-8.298-31.716.438-8.729 8.729-8.868 22.768-.46 31.692l-.025.024.485.485 22.522 22.522c5.078 5.078 13.312 5.078 18.39 0l23.006-23.006-.024-.024c8.405-8.925 8.266-22.964-.462-31.693z" fill="#8cc"/><path d="m443.445 36.993c-9.091-9.091-23.719-9.229-33.005-.456-9.286-8.773-23.914-8.635-33.005.456-9.083 9.083-9.228 23.693-.479 32.98l-.026.025.504.504 23.437 23.437c5.285 5.285 13.853 5.285 19.137 0l23.941-23.941-.025-.025c8.749-9.287 8.605-23.897-.479-32.98z" fill="#b1e4f9"/></g><path d="m430.578 203.283c-6.097 0-11.039-4.942-11.039-11.039 0-6.097 4.942-11.039 11.039-11.039 6.097 0 11.039 4.942 11.039 11.039 0 6.097-4.942 11.039-11.039 11.039z" fill="#eaaadd"/><g><path d="m459.36 247.99v46.172c0 10.35-5.96 19.31-14.63 23.63-3.54 1.77-13.08-8.763-17.3-8.763-14.58 0-14.722-1.421-20.84-14.867v-41.962l7.316-3.989c0-14.57 6.37-18.29 20.95-18.29 4.66 0 7.173-7.101 10.973-4.971 2.14 1.19 4.09 2.67 5.8 4.39 4.781 4.77 7.731 11.36 7.731 18.65z" fill="#453d81"/><path d="m444.73 316.562v1.23c-3.54 1.77-7.53 2.76-11.75 2.76-5.05 0-9.77-1.42-13.78-3.88-7.56-4.64-12.61-12.99-12.61-22.51v-1.22c3.54-1.77 7.53-2.76 11.76-2.76.56 0 1.11.02 1.65.06 4.05.24 7.85 1.4 11.2 3.28 2.14 1.19 4.09 2.67 5.8 4.39 4.78 4.77 7.73 11.36 7.73 18.65z" fill="#da387d"/><path d="m445.83 224.95v19.13c0 4.48-3.64 8.12-8.12 8.12h-31.12v-4.21c0-6.17 2.11-11.84 5.67-16.32 4.82-6.13 12.31-10.06 20.72-10.06 4.66 0 9.05 1.21 12.85 3.34z" fill="#f9f6f9"/><path d="m445.83 224.95v6.72h-33.57c4.82-6.13 12.31-10.06 20.72-10.06 4.66 0 9.05 1.21 12.85 3.34z" fill="#ebebeb"/><path d="m419.2 316.672c-7.56-4.64-12.61-12.99-12.61-22.51v-1.22c3.54-1.77 7.53-2.76 11.76-2.76.56 0 1.11.02 1.65.06-2.22 6.53-3.7 15.73-.8 26.43z" fill="#c3247d"/></g></g></g></svg>