<svg id="Capa_1" enable-background="new 0 0 512 512" height="512" viewBox="0 0 512 512" width="512" xmlns="http://www.w3.org/2000/svg"><g><g><circle cx="329.836" cy="149.616" fill="#f9f6f9" r="34.667"/><circle cx="325.192" cy="149.616" fill="#453d81" r="20.221"/><path d="m237.389 50.243c-20.937 0-37.91 16.973-37.91 37.91v45.891h75.819v-45.891c.001-20.937-16.972-37.91-37.909-37.91z" fill="#ac80dd"/><path d="m248.7 51.953c-15.42 4.82-26.61 19.21-26.61 36.2v45.89h-22.61v-45.89c0-20.93 16.97-37.91 37.91-37.91 3.94 0 7.73.6 11.31 1.71z" fill="#9d66d5"/><g><path d="m310.314 165.988-8.354-159.122c-.399-7.595-10.742-9.515-13.839-2.568l-64.895 145.528z" fill="#b1e4f9"/><g fill="#90d8f9"><path d="m296.05.128c-.812-.151-1.962 1.517-2.869 5.11l-38.043 150.511-31.912-5.923 64.888-145.529c1.551-3.473 4.919-4.729 7.936-4.169z"/><path d="m230.655 138.815c-3.965-.736-7.227-3.882-7.913-8.091-.873-5.361 2.765-10.415 8.126-11.289l75.286-12.269c5.363-.874 10.415 2.765 11.289 8.126s-2.765 10.415-8.126 11.289l-75.286 12.269c-1.152.187-2.29.166-3.376-.035z"/><path d="m252.849 89.065c-3.964-.736-7.226-3.882-7.912-8.09-.874-5.361 2.763-10.416 8.124-11.29l50.684-8.266c5.36-.874 10.415 2.763 11.29 8.124.874 5.361-2.763 10.416-8.124 11.29l-50.684 8.266c-1.153.188-2.292.167-3.378-.034z"/><path d="m275.034 39.312c-3.965-.736-7.227-3.883-7.913-8.092-.873-5.361 2.765-10.415 8.126-11.288l26.104-4.252c5.36-.875 10.415 2.765 11.288 8.126s-2.765 10.415-8.126 11.288l-26.104 4.252c-1.152.188-2.29.167-3.375-.034z"/></g></g><path d="m167.134 57.892c29.306 0 53.064 23.758 53.064 53.064s-23.758 53.064-53.064 53.064z" fill="#ffceec"/><path d="m266.48 184.59h-51.03c.14 1.88.24 3.78.24 5.69 0 37.45-28.15 68.3-64.44 72.59 1.04 4.91 1.59 9.99 1.59 15.21 0 32.48-21.2 60.01-50.51 69.53 6.13 11.76 9.61 25.12 9.61 39.29 0 23.83 17.652 18.248 1.882 33.698-8.64-7.64-15.878-5.7-23.408-14.43-5.13-5.95-38.314 4.832-42.894-1.578-20.93-29.31-35.83-63.22-42.89-99.92 2.1-.58 4.24-1.07 6.41-1.47-2.87-7.83-4.43-16.3-4.43-25.12 0-37.45 28.15-68.3 64.44-72.59-1.04-4.91-1.59-9.99-1.59-15.21 0-40.38 32.73-73.11 73.11-73.11h92.08c17.58 0 31.83 14.25 31.83 31.82z" fill="#ac80dd"/><path d="m120.33 190.28c0 5.22.56 10.3 1.6 15.21-36.29 4.29-64.45 35.14-64.45 72.59 0 8.82 1.57 17.29 4.44 25.12-20.08 3.75-37.68 14.54-50.14 29.72-2.91-9.2-5.3-18.63-7.15-28.25 2.1-.58 4.24-1.07 6.41-1.47-2.87-7.83-4.43-16.3-4.43-25.12 0-37.45 28.15-68.3 64.44-72.59-1.04-4.91-1.59-9.99-1.59-15.21 0-40.38 32.73-73.11 73.11-73.11h50.88c-40.38 0-73.12 32.73-73.12 73.11z" fill="#9d66d5"/><path d="m497.292 249.098c0 7.62-6.18 13.8-13.8 13.8h-4.97v15.96c0 8.08-3.28 15.39-8.57 20.69s-12.61 8.57-20.68 8.57c-15.52 0-28.21-12.09-29.19-27.36l-65.13 7.61c-6.82 17.12-18.59 31.72-33.54 42.05s-33.09 16.38-52.64 16.38c-51.21 0-92.73-41.52-92.73-92.73v-100.46h269.92c17.98 0 32.56 14.58 32.56 32.56v49.13h4.97c7.62 0 13.8 6.18 13.8 13.8z" fill="#ffddf1"/><path d="m282.97 304.03v206.56c-8.86.93-17.86 1.41-26.97 1.41-77.51 0-146.97-34.45-193.91-88.87l113.96-269.52z" fill="#ffddf1"/><path d="m197.67 294.87-84.84 173.38c-18.85-12.75-35.92-27.94-50.74-45.12-5.13-5.95-9.99-12.13-14.57-18.54l128.53-250.98 18.48 26z" fill="#ffceec"/><path d="m64.468 153.606c0 33.687 27.309 60.996 60.996 60.996s60.996-27.309 60.996-60.996z" fill="#ffceec"/><path d="m430.578 203.283c-6.097 0-11.039-4.942-11.039-11.039 0-6.097 4.942-11.039 11.039-11.039 6.097 0 11.039 4.942 11.039 11.039 0 6.097-4.942 11.039-11.039 11.039z" fill="#eaaadd"/><path d="m462.52 203.283c-6.097 0-11.039-4.942-11.039-11.039 0-6.097 4.942-11.039 11.039-11.039 6.097 0 11.039 4.942 11.039 11.039 0 6.097-4.943 11.039-11.039 11.039z" fill="#eaaadd"/><path d="m281.882 345.876c-4.28.61-8.66.92-13.11.92-51.21 0-92.73-41.52-92.73-92.73v-100.46h26.16v100.46c0 46.78 34.65 85.47 79.68 91.81z" fill="#ffceec"/><path d="m478.522 262.898v15.45h-28.15c-2.13 0-4.07-.86-5.47-2.26s-2.26-3.34-2.26-5.47c0-4.26 3.46-7.72 7.73-7.72z" fill="#eaaadd"/><g><circle cx="250.358" cy="149.616" fill="#f9f6f9" r="34.667"/><circle cx="251.257" cy="149.616" fill="#453d81" r="20.221"/></g></g><path d="m512 256c0 130.55-97.74 238.29-224.03 254.02-10.47 1.31-22.217-76.653-33.048-76.653-46.68 0-32.114-10.759-69.804-32.589-19.7-11.41-82.252 12.933-64.478-1.048 46.43-36.52.23.24 0 0-4.78-4.86 4.39 5.23 0 0-15.7-18.72 9.87 22.7 0 0-3.39-7.8-105.93-57.55-108.54-65.73-7.85-24.59-12.1-50.8-12.1-78 0-141.38 114.62-256 256-256s256 114.62 256 256z" fill="#453d81"/><g fill="#ffe07d"><path d="m139.478 45.112-1.82.561c-6.42 1.98-13.276-1.349-15.691-7.618l-7.427-19.284c-2.66-6.907 1.086-14.623 8.159-16.804l4.523-1.395c7.073-2.181 14.514 2.084 16.206 9.29l4.724 20.117c1.537 6.54-2.254 13.153-8.674 15.133z"/><path d="m92.132 71.345-1.296 1.396c-4.57 4.925-12.172 5.47-17.398 1.248l-16.073-12.986c-5.757-4.652-6.371-13.207-1.336-18.632l3.22-3.47c5.035-5.426 13.612-5.452 18.68-.058l14.15 15.06c4.599 4.896 4.623 12.518.053 17.442z"/><path d="m68.634 120.057-.424 1.857c-1.495 6.55-7.807 10.823-14.443 9.78l-20.414-3.21c-7.312-1.15-12.121-8.252-10.473-15.468l1.053-4.614c1.647-7.216 9.062-11.528 16.148-9.39l19.784 5.967c6.432 1.939 10.264 8.528 8.769 15.078z"/></g><g fill="#ffe07d"><path d="m365.828 45.112 1.82.561c6.42 1.98 13.276-1.349 15.691-7.618l7.427-19.284c2.66-6.907-1.086-14.623-8.159-16.804l-4.523-1.395c-7.073-2.181-14.514 2.084-16.206 9.29l-4.724 20.117c-1.537 6.54 2.254 13.153 8.674 15.133z"/><path d="m413.174 71.345 1.296 1.396c4.57 4.925 12.172 5.47 17.398 1.248l16.074-12.987c5.757-4.652 6.371-13.207 1.336-18.632l-3.22-3.47c-5.035-5.426-13.612-5.452-18.68-.058l-14.15 15.06c-4.6 4.897-4.624 12.519-.054 17.443z"/><path d="m436.672 120.057.424 1.857c1.495 6.55 7.807 10.823 14.443 9.78l20.414-3.21c7.312-1.15 12.121-8.252 10.473-15.468l-1.053-4.614c-1.647-7.216-9.062-11.528-16.148-9.39l-19.784 5.967c-6.432 1.939-10.264 8.528-8.769 15.078z"/></g><g><path d="m242.39 80.204c-20.937 0-37.91 16.973-37.91 37.91v45.891h75.819v-45.891c0-20.937-16.972-37.91-37.909-37.91z" fill="#ac80dd"/><path d="m253.7 81.914c-15.42 4.82-26.61 19.21-26.61 36.2v45.89h-22.61v-45.89c0-20.93 16.97-37.91 37.91-37.91 3.94 0 7.73.6 11.31 1.71z" fill="#9d66d5"/><path d="m271.48 214.55h-51.03c.14 1.88.24 3.78.24 5.69 0 37.45-28.15 68.3-64.44 72.59 1.04 4.91 1.59 9.99 1.59 15.21 0 32.48-21.2 60.01-50.51 69.53 6.13 11.76 9.61 25.12 9.61 39.29 0 23.83 17.65 18.25 1.88 33.7-8.64-7.64-15.88-5.7-23.41-14.43-2.59-3 16.977-27.34 7.387-26.18-4.78-4.86-38.647 15.691-43.036 10.46-21.091-25.15-37.441-54.41-47.661-86.41 1.3-.32 2.61-.6 3.94-.84-2.87-7.83-4.43-16.3-4.43-25.12 0-37.45 28.15-68.3 64.44-72.59-1.04-4.91-1.59-9.99-1.59-15.21 0-40.38 32.73-73.11 73.11-73.11h92.08c17.58 0 31.83 14.25 31.83 31.82z" fill="#ac80dd"/><path d="m125.33 220.24c0 5.22.56 10.3 1.6 15.21-36.29 4.29-64.45 35.14-64.45 72.59 0 8.82 1.57 17.29 4.44 25.12-17.85 3.33-33.74 12.23-45.8 24.83-3.39-7.8-6.41-15.81-9.02-23.99 1.3-.32 2.61-.6 3.94-.84-2.87-7.83-4.43-16.3-4.43-25.12 0-37.45 28.15-68.3 64.44-72.59-1.04-4.91-1.59-9.99-1.59-15.21 0-40.38 32.73-73.11 73.11-73.11h50.88c-40.38 0-73.12 32.73-73.12 73.11z" fill="#9d66d5"/><circle cx="334.836" cy="179.577" fill="#f9f6f9" r="34.667"/><circle cx="330.193" cy="179.577" fill="#453d81" r="20.221"/><path d="m296.042 147.69h69.04c5.516 0 9.988-4.472 9.988-9.988 0-5.516-4.472-9.988-9.988-9.988h-69.04c-5.516 0-9.988 4.472-9.988 9.988 0 5.516 4.472 9.988 9.988 9.988z" fill="#ffceec"/><g><path d="m251.757 36.531 29.508 87.629-177.147 59.652-29.508-87.628 59.361 29.851 10.152-20.734 19.061-38.943 59.36 29.851z" fill="#ffe07d"/><path d="m144.123 105.301 19.671 58.416-59.676 20.095-29.508-87.628 59.361 29.851z" fill="#ffd064"/><circle cx="181.679" cy="121.283" fill="#da387d" r="16.079"/><path d="m191.728 133.832c-1.43 1.151-3.077 2.067-4.92 2.688-8.42 2.835-17.535-1.695-20.367-10.106-2.835-8.42 1.686-17.532 10.106-20.367 1.842-.62 3.708-.888 5.543-.836-5.116 4.093-7.401 11.102-5.186 17.679 2.215 6.578 8.274 10.777 14.824 10.942z" fill="#c3247d"/><g><circle cx="100.561" cy="148.598" fill="#da387d" r="16.079"/><path d="m110.609 161.148c-1.43 1.151-3.077 2.067-4.92 2.688-8.42 2.835-17.535-1.695-20.367-10.106-2.835-8.42 1.686-17.532 10.106-20.367 1.842-.62 3.708-.888 5.543-.836-5.116 4.093-7.401 11.102-5.186 17.679 2.215 6.578 8.274 10.777 14.824 10.942z" fill="#c3247d"/><circle cx="262.798" cy="93.967" fill="#da387d" r="16.079"/><path d="m272.846 106.516c-1.43 1.151-3.077 2.067-4.92 2.688-8.42 2.835-17.535-1.695-20.367-10.106-2.835-8.42 1.686-17.532 10.106-20.367 1.842-.62 3.708-.888 5.543-.836-5.116 4.093-7.401 11.102-5.186 17.679 2.216 6.579 8.275 10.778 14.824 10.942z" fill="#c3247d"/></g></g><g><path d="m315.315 195.949-8.355-159.122c-.399-7.595-10.742-9.515-13.839-2.568l-64.895 145.528z" fill="#b1e4f9"/><g fill="#90d8f9"><path d="m301.05 30.089c-.812-.151-1.962 1.517-2.869 5.11l-38.043 150.511-31.912-5.923 64.888-145.528c1.552-3.474 4.919-4.73 7.936-4.17z"/><path d="m235.655 168.776c-3.965-.736-7.227-3.882-7.913-8.091-.873-5.361 2.765-10.415 8.126-11.289l75.286-12.269c5.363-.874 10.415 2.765 11.289 8.126.873 5.361-2.765 10.415-8.126 11.289l-75.286 12.269c-1.152.187-2.29.166-3.376-.035z"/><path d="m257.849 119.026c-3.964-.736-7.226-3.882-7.912-8.09-.874-5.361 2.763-10.416 8.124-11.29l50.684-8.266c5.36-.874 10.415 2.763 11.29 8.124.874 5.361-2.763 10.416-8.124 11.29l-50.684 8.266c-1.153.188-2.292.167-3.378-.034z"/><path d="m280.034 69.273c-3.965-.736-7.227-3.883-7.913-8.092-.873-5.361 2.765-10.415 8.126-11.288l26.104-4.252c5.36-.875 10.415 2.765 11.288 8.126.874 5.361-2.765 10.415-8.126 11.288l-26.104 4.252c-1.151.188-2.29.167-3.375-.034z"/></g></g><path d="m502.292 279.059c0 7.62-6.18 13.8-13.8 13.8h-4.97v15.96c0 8.08-3.28 15.39-8.57 20.69s-12.61 8.57-20.68 8.57c-15.52 0-28.21-12.09-29.19-27.36l-65.13 7.61c-6.82 17.12-18.59 31.72-33.54 42.05s-33.09 16.38-52.64 16.38c-51.21 0-92.73-41.52-92.73-92.73v-100.46h269.92c17.98 0 32.56 14.58 32.56 32.56v49.13h4.97c7.62 0 13.8 6.18 13.8 13.8z" fill="#ffddf1"/><path d="m287.97 333.99v176.03c-10.47 1.31-21.14 1.98-31.97 1.98-71.08 0-135.4-28.97-181.79-75.75l106.84-252.68z" fill="#ffddf1"/><path d="m202.67 324.83-74.8 152.85c-19.7-11.41-37.74-25.37-53.66-41.43-5.03-5.08-9.85-10.36-14.45-15.84l121.29-236.84 18.48 26z" fill="#ffceec"/><path d="m69.468 183.567c0 33.687 27.309 60.996 60.996 60.996s60.996-27.309 60.996-60.996z" fill="#ffceec"/><path d="m435.578 233.244c-6.097 0-11.039-4.942-11.039-11.039 0-6.097 4.942-11.039 11.039-11.039 6.097 0 11.039 4.942 11.039 11.039.001 6.096-4.942 11.039-11.039 11.039z" fill="#eaaadd"/><path d="m467.52 233.244c-6.097 0-11.039-4.942-11.039-11.039 0-6.097 4.942-11.039 11.039-11.039 6.097 0 11.039 4.942 11.039 11.039 0 6.096-4.942 11.039-11.039 11.039z" fill="#eaaadd"/><path d="m286.882 375.837c-4.28.61-8.66.92-13.11.92-51.21 0-92.73-41.52-92.73-92.73v-100.46h26.16v100.46c0 46.78 34.65 85.47 79.68 91.81z" fill="#ffceec"/><path d="m483.522 292.859v15.45h-28.15c-2.13 0-4.07-.86-5.47-2.26s-2.26-3.34-2.26-5.47c0-4.26 3.46-7.72 7.73-7.72z" fill="#eaaadd"/><g><circle cx="255.359" cy="179.577" fill="#f9f6f9" r="34.667"/><circle cx="256.258" cy="179.577" fill="#453d81" r="20.221"/></g><path d="m220.45 190.883h84.284v36.358h-84.284z" fill="#ffddf1"/><path d="m215.789 162.1h69.04c5.516 0 9.988-4.472 9.988-9.988 0-5.516-4.472-9.988-9.988-9.988h-69.04c-5.516 0-9.988 4.472-9.988 9.988 0 5.516 4.471 9.988 9.988 9.988z" fill="#ffceec"/></g><path d="m287.97 403.07v19.68c-2.39-2.58-3.86-6.03-3.86-9.84 0-3.8 1.46-7.26 3.86-9.84z" fill="#ffceec"/><path d="m287.97 423.49v44.98c-3.71 1.76-8.01 1.84-11.77.28-.32 5.55-3.86 10.67-9.41 12.73-5.54 2.06-11.54.52-15.42-3.46-2.37 4.77-7.29 8.04-12.98 8.04-4.92 0-9.27-2.46-11.89-6.23-2.61 3.77-6.97 6.23-11.89 6.23-5.42 0-10.15-2.98-12.63-7.39-3.34 3.88-8.62 5.86-13.98 4.74-5.36-1.13-9.4-5.09-10.88-10-4.1 3.07-9.7 3.87-14.69 1.6-4.99-2.28-8.06-7.02-8.45-12.13-4.66 2.11-10.3 1.66-14.67-1.64-4.37-3.29-6.34-8.58-5.62-13.64-5 1.05-10.4-.6-13.96-4.76s-4.35-9.75-2.54-14.53c-5.12-.07-10.04-2.84-12.62-7.68-2.58-4.82-2.13-10.47.67-14.74-2.45-.58-4.69-1.78-6.53-3.48l17.9-42.33c1.5 2.15 2.45 4.72 2.59 7.52.23 4.35-1.48 8.33-4.37 11.14 3.62 1.75 6.51 4.99 7.67 9.18 1.15 4.18.35 8.44-1.86 11.81 3.92.91 7.44 3.45 9.48 7.28 2.05 3.84 2.19 8.17.77 11.94 4.03.04 8.01 1.76 10.84 5.06s3.91 7.51 3.32 11.5c3.95-.82 8.22 0 11.69 2.61 3.47 2.62 5.43 6.49 5.73 10.51 3.66-1.65 8.01-1.78 11.97.02 3.94 1.8 6.69 5.15 7.85 9.01 3.23-2.41 7.44-3.48 11.68-2.59 4.25.9 7.67 3.58 9.65 7.09 2.65-3.1 6.59-5.06 10.99-5.06 4.92 0 9.28 2.46 11.89 6.23 2.62-3.77 6.97-6.23 11.89-6.23 4.08 0 7.76 1.68 10.38 4.38 1.58-3.18 4.33-5.8 7.93-7.14 3.58-1.33 7.35-1.16 10.61.2.22-3.53 1.7-7 4.47-9.64s6.33-3.97 9.87-4c-1.2-3.33-1.19-7.11.32-10.62 1.27-2.96 3.41-5.28 6-6.79z" fill="#ffceec"/><path d="m303.644 414.994c4.552-2.44 7.65-7.24 7.65-12.766 0-7.997-6.483-14.479-14.479-14.479s-14.479 6.482-14.479 14.479c0 4.043 1.661 7.696 4.333 10.322-2.796 1.494-5.127 3.904-6.476 7.043-1.506 3.514-1.516 7.297-.319 10.628-3.542.029-7.094 1.352-9.865 3.996-2.77 2.635-4.257 6.11-4.469 9.643-3.263-1.361-7.037-1.535-10.618-.203-3.591 1.342-6.342 3.957-7.925 7.143-2.626-2.703-6.303-4.382-10.377-4.382-4.923 0-9.277 2.461-11.892 6.226-2.616-3.764-6.969-6.226-11.892-6.226-4.401 0-8.34 1.96-10.994 5.058-1.979-3.513-5.396-6.187-9.643-7.085-4.248-.898-8.455.174-11.679 2.587-1.159-3.861-3.91-7.21-7.858-9.016-3.957-1.795-8.301-1.67-11.969-.019-.3-4.015-2.259-7.886-5.725-10.502-3.475-2.616-7.741-3.436-11.689-2.616.588-3.987-.493-8.195-3.321-11.496s-6.814-5.019-10.839-5.068c1.419-3.764 1.274-8.098-.773-11.931-2.036-3.832-5.56-6.371-9.478-7.288 2.21-3.369 3.012-7.625 1.853-11.805-1.159-4.189-4.045-7.432-7.665-9.18 2.886-2.809 4.595-6.795 4.373-11.139-.246-4.733-2.752-8.804-6.407-11.259 3.75-2.617 6.208-6.956 6.208-11.875 0-7.997-6.483-14.479-14.479-14.479-7.997 0-14.479 6.482-14.479 14.479 0 5.011 2.547 9.426 6.415 12.025-3.954 2.765-6.447 7.432-6.178 12.605.28 5.473 3.562 10.068 8.166 12.297-3.668 3.571-5.328 8.977-3.861 14.247 1.457 5.29 5.666 9.064 10.647 10.242-2.8 4.276-3.244 9.923-.666 14.749 2.577 4.836 7.501 7.606 12.616 7.674-1.805 4.778-1.013 10.377 2.548 14.527 3.553 4.16 8.958 5.811 13.958 4.769-.724 5.058 1.245 10.348 5.618 13.639 4.373 3.301 10.01 3.745 14.672 1.641.386 5.106 3.456 9.846 8.446 12.124 4.99 2.268 10.589 1.477 14.691-1.593 1.477 4.903 5.521 8.861 10.878 9.99 5.358 1.13 10.647-.859 13.977-4.739 2.481 4.411 7.21 7.394 12.635 7.394 4.923 0 9.277-2.461 11.892-6.226 2.616 3.764 6.969 6.226 11.892 6.226 5.685 0 10.608-3.272 12.973-8.04 3.881 3.977 9.885 5.521 15.425 3.465 5.55-2.066 9.082-7.182 9.411-12.732 5.135 2.133 11.265 1.197 15.55-2.886 4.286-4.083 5.522-10.164 3.64-15.396 5.569-.048 10.849-3.33 13.186-8.765 2.418-5.647.965-11.968-3.159-16.027z" fill="#ffe07d"/></g></svg>