<svg id="Capa_1" enable-background="new 0 0 512 512" height="512" viewBox="0 0 512 512" width="512" xmlns="http://www.w3.org/2000/svg"><g><path d="m512 256c0 123.58-87.58 226.72-204.06 250.73-16.77 3.45-295.35-171.2-296.03-173.36-7.74-24.41-11.91-50.4-11.91-77.37 0-141.38 114.62-256 256-256s256 114.62 256 256z" fill="#ffd064"/><g><path d="m162.309 70.536c-20.685 7.466-31.402 30.287-23.936 50.972l16.364 45.339 74.907-27.036-16.364-45.339c-7.465-20.685-30.285-31.402-50.971-23.936z" fill="#ac80dd"/><path d="m174.093 68.192c-13.516 10.26-19.44 28.468-13.382 45.253l16.364 45.338-22.338 8.062-16.364-45.338c-7.463-20.678 3.248-43.505 23.936-50.972 3.893-1.404 7.852-2.163 11.784-2.343z" fill="#9d66d5"/><g><path d="m275.63 158.885-64.994-154.229c-3.102-7.362-14.005-5.57-14.588 2.397l-12.222 166.918z" fill="#b1e4f9"/><g fill="#90d8f9"><path d="m202.394.106c-.856.141-1.397 2.198-1.012 6.071l16.084 162.266-33.64 5.528 12.214-166.916c.295-3.985 3.174-6.426 6.354-6.949z"/><path d="m187.239 160.444c-4.18.687-8.524-1.259-10.703-5.172-2.775-4.985-.982-11.275 4.003-14.051l70.005-38.967c4.987-2.776 11.276-.982 14.051 4.003s.982 11.275-4.003 14.051l-70.005 38.967c-1.071.595-2.203.981-3.348 1.169z"/><path d="m191.426 103.378c-4.179.687-8.523-1.258-10.702-5.171-2.775-4.985-.985-11.276 4-14.051l47.126-26.239c4.984-2.775 11.275-.984 14.051 4 2.775 4.985.985 11.276-4 14.051l-47.126 26.239c-1.071.597-2.204.983-3.349 1.171z"/><path d="m195.603 46.313c-4.18.687-8.525-1.259-10.703-5.173-2.775-4.985-.982-11.275 4.003-14.05l24.274-13.509c4.984-2.776 11.275-.982 14.05 4.003s.982 11.275-4.003 14.05l-24.274 13.509c-1.071.597-2.203.982-3.347 1.17z"/></g></g><path d="m95.627 103.144c28.954-10.45 60.897 4.55 71.348 33.504s-4.55 60.897-33.504 71.348z" fill="#ffceec"/><path d="m290.62 205.66h-53.59c.14 1.98.25 3.97.25 5.98 0 39.34-29.57 71.74-67.69 76.24 1.09 5.16 1.67 10.5 1.67 15.98 0 34.12-22.26 63.03-53.05 73.03 6.44 12.35 10.09 26.39 10.09 41.27 0 18.59 1.47 23.24-8.24 37.54-11.16-7.53-3.21-18.48-13.02-27.63-5.52-5.14-36.42 4.64-41.46-.97-16.74-18.61-30.79-39.7-41.52-62.64-.45-.96-.9-1.93-1.34-2.9-3.21-7.08-6.12-14.34-8.68-21.75 1.32-3.01 2.123-4.176 1.683-6.446 2.21-.61 4.317-2.694 6.597-3.114-3.01-8.23-4.65-17.13-4.65-26.39 0-39.33 29.57-71.74 67.68-76.24-1.09-5.16-1.67-10.5-1.67-15.98 0-42.41 34.38-76.79 76.8-76.79h96.71c18.47 0 33.43 14.97 33.43 33.42z" fill="#ac80dd"/><path d="m469.189 174.738-20.176-55.901c-6.411-17.764-26.015-26.969-43.779-20.558l-266.673 96.249 35.822 99.252c18.261 50.594 74.086 76.809 124.68 58.549 19.315-6.971 35.079-19.417 46.166-34.953 1.564-2.193 3.03-4.449 4.405-6.756 18.49 4.129 38.334 3.227 57.474-3.681 53.65-19.365 81.444-78.552 62.081-132.201z" fill="#ffddf1"/><path d="m137.12 211.64c0 5.48.58 10.82 1.68 15.98-38.12 4.5-67.7 36.91-67.7 76.24 0 9.26 1.65 18.16 4.66 26.39-20.27 3.78-39.93 16.2-53.04 31.31-4.14-9.12-7.76-18.53-10.81-28.19 3.88-1.77 8.52-2.77 10.41-3.12-3.01-8.23-4.65-17.13-4.65-26.39 0-39.33 29.57-71.74 67.68-76.24-1.09-5.16-1.67-10.5-1.67-15.98 0-42.41 34.38-76.79 76.8-76.79h53.44c-42.42 0-76.8 34.38-76.8 76.79z" fill="#9d66d5"/><path d="m307.94 331.12v175.61c-16.77 3.45-34.14 5.27-51.94 5.27-67.47 0-128.85-26.11-174.58-68.76l114.22-270.12z" fill="#ffddf1"/><path d="m218.35 321.5-79.39 162.24c-21.04-10.84-40.4-24.51-57.54-40.5-5.52-5.14-10.8-10.53-15.84-16.14l130.06-253.98 19.41 27.31z" fill="#ffceec"/><path d="m28.325 234.316c12.012 33.282 48.73 50.524 82.012 38.512s50.524-48.73 38.512-82.012z" fill="#ffceec"/><path d="m407.746 152.847c-6.024 2.174-12.669-.947-14.843-6.97-2.174-6.023.947-12.669 6.97-14.843 6.023-2.174 12.669.947 14.843 6.97 2.174 6.024-.947 12.669-6.97 14.843z" fill="#eaaadd"/><path d="m439.303 141.457c-6.024 2.174-12.669-.947-14.843-6.97-2.174-6.023.947-12.669 6.97-14.843 6.023-2.174 12.669.947 14.843 6.97 2.174 6.024-.947 12.669-6.97 14.843z" fill="#eaaadd"/><path d="m311.685 346.748c-4.011 2.129-8.228 3.997-12.624 5.584-50.594 18.261-106.42-7.955-124.681-58.549l-35.822-99.252 25.845-9.328 35.822 99.252c16.681 46.217 64.711 72.086 111.46 62.293z" fill="#ffceec"/><g><path d="m452.079 214.644c-2.148 20.697-10.897 39.602-24.832 53.155-7.4 7.195-22.353 2.705-32.464 6.355-23.991 8.659-43.801 14.166-64.92-.191-4.54-3.076-8.865-6.608-12.888-10.556-10.381-10.162 6.717-11.055 1.301-26.06 0 0 .075-16.012 30.784-19.908 46.216-5.864 103.919-11.476 103.019-2.795z" fill="#453d81"/><path d="m427.247 267.799c-7.4 7.195-16.249 12.885-26.36 16.534-8.341 3.011-16.901 4.407-25.431 4.348-15.991-.11-31.818-5.344-45.593-14.718 7.4-7.195 16.249-12.885 26.359-16.534 8.032-2.899 16.282-4.3 24.484-4.342 16.308-.106 32.483 5.162 46.541 14.712z" fill="#da387d"/><path d="m451.306 168.104 9.731 26.961c2.885 7.993-1.25 16.797-9.242 19.682l-134.819 48.66c-10.381-10.162-18.845-23.059-24.26-38.063z" fill="#f9f6f9"/><path d="m375.456 288.681c-15.991-.11-31.818-5.344-45.593-14.718 7.4-7.195 16.249-12.885 26.359-16.534 8.032-2.899 16.282-4.3 24.484-4.342-6.813 6.677-15.007 19.194-5.25 35.594z" fill="#c3247d"/><path d="m384.608 192.177-36.58 19.512c-16.104 8.59-20.937 29.409-10.264 44.214l-20.789 7.503c-10.381-10.162-18.845-23.059-24.26-38.063z" fill="#dddaec"/></g><path d="m241.356 195.885c-5.456 1.969-11.476-.857-13.446-6.314-3.219-8.919-13.095-13.557-22.015-10.338s-13.557 13.095-10.338 22.014c1.969 5.457-.857 11.476-6.314 13.446-5.457 1.969-11.476-.857-13.446-6.314-7.152-19.815 3.151-41.754 22.966-48.906s41.754 3.15 48.906 22.965c1.97 5.458-.857 11.478-6.313 13.447z" fill="#453d81"/><path d="m320.003 167.5c-5.456 1.969-11.476-.857-13.446-6.314-3.219-8.919-13.095-13.557-22.014-10.338-8.92 3.219-13.557 13.095-10.338 22.014 1.969 5.457-.858 11.476-6.314 13.446-5.456 1.969-11.476-.857-13.446-6.314-7.152-19.815 3.15-41.754 22.966-48.906 19.815-7.152 41.754 3.151 48.906 22.966 1.969 5.457-.858 11.477-6.314 13.446z" fill="#453d81"/><g><path d="m170.413 245.687v-26.542h-26.542c-14.659 0-26.542 11.883-26.542 26.542 0 14.659 11.883 26.542 26.542 26.542 14.659-.001 26.542-11.884 26.542-26.542z" fill="#b1e4f9"/><path d="m125.106 264.457c-4.805-4.805-7.777-11.441-7.777-18.771.004-14.655 11.885-26.537 26.54-26.54l26.544.004-17.235 9.305c-9.517 5.142-21.399 17.023-26.54 26.54-2.573 4.757-2.968 8.026-1.532 9.462z" fill="#90d8f9"/></g><g><path d="m198.968 296.859-18.768-18.768-18.768 18.768c-10.365 10.365-10.365 27.17 0 37.536 10.365 10.365 27.17 10.365 37.536 0 10.365-10.366 10.365-27.171 0-37.536z" fill="#b1e4f9"/><path d="m180.204 342.168c-6.795 0-13.589-2.591-18.772-7.774-10.36-10.366-10.36-27.168 0-37.534l18.772-18.767-5.608 18.767c-3.094 10.366-3.094 27.168 0 37.534 1.545 5.183 3.577 7.774 5.608 7.774z" fill="#90d8f9"/></g><g><path d="m330.841 115.199h-26.541v-26.542c0-14.659 11.883-26.542 26.542-26.542 14.659 0 26.542 11.883 26.542 26.542-.001 14.659-11.884 26.542-26.543 26.542z" fill="#b1e4f9"/><path d="m349.612 69.892c-4.805-4.805-11.441-7.777-18.771-7.777-14.655.004-26.537 11.885-26.54 26.54l.004 26.544 9.305-17.235c5.142-9.517 17.023-21.399 26.54-26.54 4.757-2.573 8.026-2.968 9.462-1.532z" fill="#90d8f9"/></g></g></g></svg>