<svg id="Capa_1" enable-background="new 0 0 512 512" height="512" viewBox="0 0 512 512" width="512" xmlns="http://www.w3.org/2000/svg"><g><path d="m512 256c0 101.09-58.59 188.49-143.67 230.09-9.04 4.43-18.38-18.763-27.98-15.413-6.95 2.43-14.03 31.653-21.24 33.483-11.745 2.979-23.812 5.145-36.139 6.436-8.863.928-40.323-91.13-49.433-91.13-85.978 0-124.203 34.752-186.021-14.873-29.916-41.897-47.517-93.191-47.517-148.593 0-141.38 114.62-256 256-256s256 114.62 256 256z" fill="#3342aa"/><g><path d="m295.168 149.616c0-19.146 15.521-23.008 34.667-23.008s34.667 3.862 34.667 23.008-15.521 34.667-34.667 34.667-34.667-15.521-34.667-34.667z" fill="#f9f6f9"/><circle cx="325.192" cy="149.616" fill="#453d81" r="20.221"/><path d="m299.445 139.383h69.04c5.516 0 9.988-4.472 9.988-9.988 0-5.516-4.472-9.988-9.988-9.988h-69.04c-5.516 0-9.988 4.472-9.988 9.988 0 5.516 4.472 9.988 9.988 9.988z" fill="#ffceec"/><path d="m167.134 57.892c29.306 0 53.064 23.758 53.064 53.064s-23.758 53.064-53.064 53.064z" fill="#ffceec"/><path d="m266.48 184.59h-51.03c.14 1.88.24 3.78.24 5.69 0 37.45-28.15 68.3-64.44 72.59 1.04 4.91 1.59 9.99 1.59 15.21 0 32.48-21.2 60.01-50.51 69.53 6.13 11.76 9.61 25.12 9.61 39.29 0 23.83 17.652 18.248 1.882 33.698-8.64-7.64-15.878-5.7-23.408-14.43-5.13-5.95-38.314 4.832-42.894-1.578-20.93-29.31-35.83-63.22-42.89-99.92 2.1-.58 4.24-1.07 6.41-1.47-2.87-7.83-4.43-16.3-4.43-25.12 0-37.45 28.15-68.3 64.44-72.59-1.04-4.91-1.59-9.99-1.59-15.21 0-40.38 32.73-73.11 73.11-73.11h92.08c17.58 0 31.83 14.25 31.83 31.82z" fill="#ac80dd"/><path d="m120.33 190.28c0 5.22.56 10.3 1.6 15.21-36.29 4.29-64.45 35.14-64.45 72.59 0 8.82 1.57 17.29 4.44 25.12-20.08 3.75-37.68 14.54-50.14 29.72-2.91-9.2-5.3-18.63-7.15-28.25 2.1-.58 4.24-1.07 6.41-1.47-2.87-7.83-4.43-16.3-4.43-25.12 0-37.45 28.15-68.3 64.44-72.59-1.04-4.91-1.59-9.99-1.59-15.21 0-40.38 32.73-73.11 73.11-73.11h50.88c-40.38 0-73.12 32.73-73.12 73.11z" fill="#9d66d5"/><path d="m198.818 41.699h2.931c56.936 0 103.091 46.155 103.091 103.091v25.603h-209.113v-25.603c0-56.936 46.155-103.091 103.091-103.091z" fill="#da387d"/><g fill="#c3247d"><path d="m230.287 45.7c-43.06 12.37-74.56 52.05-74.56 99.09v25.6h-60v-25.6c0-56.94 46.16-103.09 103.09-103.09h2.94c9.9 0 19.47 1.4 28.53 4z"/><path d="m50.64 133.16h49.881v-1.65c0-23.331-18.914-42.245-42.245-42.245h-7.636c-12.121 0-21.948 9.826-21.948 21.948.001 12.121 9.827 21.947 21.948 21.947z"/><path d="m30.922 133.16h69.6v1.65c0 23.331-18.914 42.245-42.245 42.245h-27.355c-12.121 0-21.948-9.826-21.948-21.948 0-12.121 9.826-21.947 21.948-21.947z"/></g><g><path d="m310.314 165.988-8.354-159.122c-.399-7.595-10.742-9.515-13.839-2.568l-64.895 145.528z" fill="#b1e4f9"/><g fill="#90d8f9"><path d="m296.05.128c-.812-.151-1.962 1.517-2.869 5.11l-38.043 150.511-31.912-5.923 64.888-145.529c1.551-3.473 4.919-4.729 7.936-4.169z"/><path d="m230.655 138.815c-3.965-.736-7.227-3.882-7.913-8.091-.873-5.361 2.765-10.415 8.126-11.289l75.286-12.269c5.363-.874 10.415 2.765 11.289 8.126s-2.765 10.415-8.126 11.289l-75.286 12.269c-1.152.187-2.29.166-3.376-.035z"/><path d="m252.849 89.065c-3.964-.736-7.226-3.882-7.912-8.09-.874-5.361 2.763-10.416 8.124-11.29l50.684-8.266c5.36-.874 10.415 2.763 11.29 8.124.874 5.361-2.763 10.416-8.124 11.29l-50.684 8.266c-1.153.188-2.292.167-3.378-.034z"/><path d="m275.034 39.312c-3.965-.736-7.227-3.883-7.913-8.092-.873-5.361 2.765-10.415 8.126-11.288l26.104-4.252c5.36-.875 10.415 2.765 11.288 8.126s-2.765 10.415-8.126 11.288l-26.104 4.252c-1.152.188-2.29.167-3.375-.034z"/></g></g><path d="m445.962 153.608h-269.92v100.46c0 51.21 41.52 92.73 92.73 92.73 19.55 0 37.69-6.05 52.64-16.38 14.618-10.101 26.183-24.291 33.066-40.921l68.066 1.245c4.555 10.234 14.803 17.376 26.728 17.376 8.07 0 15.39-3.27 20.68-8.57s8.57-12.61 8.57-20.69v-92.69c0-17.98-14.58-32.56-32.56-32.56z" fill="#ffddf1"/><path d="m282.97 304.03v206.56c-8.86.93-17.86 1.41-26.97 1.41-77.51 0-146.97-34.45-193.91-88.87l113.96-269.52z" fill="#ffddf1"/><path d="m197.67 294.87-84.84 173.38c-18.85-12.75-35.92-27.94-50.74-45.12-5.13-5.95-9.99-12.13-14.57-18.54l128.53-250.98 18.48 26z" fill="#ffceec"/><path d="m64.468 153.606c0 33.687 27.309 60.996 60.996 60.996s60.996-27.309 60.996-60.996z" fill="#ffceec"/><path d="m430.578 203.283c-6.097 0-11.039-4.942-11.039-11.039 0-6.097 4.942-11.039 11.039-11.039 6.097 0 11.039 4.942 11.039 11.039 0 6.097-4.942 11.039-11.039 11.039z" fill="#eaaadd"/><path d="m462.52 203.283c-6.097 0-11.039-4.942-11.039-11.039 0-6.097 4.942-11.039 11.039-11.039 6.097 0 11.039 4.942 11.039 11.039 0 6.097-4.943 11.039-11.039 11.039z" fill="#eaaadd"/><path d="m281.882 345.876c-4.28.61-8.66.92-13.11.92-51.21 0-92.73-41.52-92.73-92.73v-100.46h26.16v100.46c0 46.78 34.65 85.47 79.68 91.81z" fill="#ffceec"/><g><circle cx="245.358" cy="149.616" fill="#f9f6f9" r="34.667"/><circle cx="246.257" cy="149.616" fill="#453d81" r="20.221"/></g><path d="m472.134 248.363c-.005 13.014-8.739 23.977-20.67 27.355-2.463.697-5.07 1.072-7.761 1.075l-29.25-29.618s33.583-26.993 35.628-26.522c12.638 2.897 22.053 14.199 22.053 27.71z" fill="#453d81"/><path d="m450.082 220.653-1.002 16.067c-.176 2.818-2.552 4.99-5.374 4.914l-.003 14.011.001 21.15-11.317.003-10-.006-17.595.003c-.446.002-.886-.009-1.328-.029-3.538-.162-6.907-.975-9.999-2.314-8.035-3.493-14.142-10.598-16.274-19.265-.546-2.184-.83-4.473-.83-6.822-.006-2.482.319-4.892.918-7.182.822-3.153 2.173-6.092 3.955-8.717 3.016-4.471 7.25-8.018 12.228-10.186 1.15-.492 2.347-.924 3.569-1.27 2.059-.583 4.212-.943 6.43-1.041.441-.021.885-.032 1.331-.034l17.595-.003 10 .006 11.317-.003c2.194 0 4.332.247 6.378.718z" fill="#f9f6f9"/><path d="m443.706 241.633-.003 14.011-66.51-.459c-.546-2.184-.83-4.473-.83-6.822-.006-2.482.319-4.892.918-7.182z" fill="#dddaec"/><path d="m403.462 219.967.003 56.798c-3.538-.162-6.907-.975-9.999-2.314l-.003-52.173c1.15-.492 2.347-.924 3.569-1.27 2.059-.584 4.212-.944 6.43-1.041z" fill="#dddaec"/><path d="m422.387 219.933h10v56.861h-10z" fill="#dddaec"/><path d="m211.737 122.186h69.04c5.516 0 9.988-4.472 9.988-9.988 0-5.516-4.472-9.988-9.988-9.988h-69.04c-5.516 0-9.988 4.472-9.988 9.988 0 5.516 4.472 9.988 9.988 9.988z" fill="#ffceec"/><path d="m368.33 429.44v56.65c-15.58 7.63-32.06 13.72-49.22 18.07v-74.72z" fill="#ffddf1"/><path d="m319.112 429.442h49.216v35.249h-49.216z" fill="#ffceec"/><path d="m340.35 429.44v68.33c-6.95 2.43-14.03 4.56-21.24 6.39v-74.72z" fill="#ffceec"/><g><path d="m343.72 405.904c-4.143 0-7.5-3.358-7.5-7.5v-26.545c-8.003-1.528-15.303-5.505-21.061-11.568-7.512-7.912-11.336-18.28-10.771-29.197 1.064-20.498 17.986-36.878 38.522-37.292.27-.005.538-.008.806-.008 19.599 0 36.292 14.443 39.008 33.901.252 1.802.38 3.647.38 5.484 0 4.142-3.357 7.5-7.5 7.5s-7.5-3.358-7.5-7.5c0-1.144-.079-2.292-.235-3.409-1.704-12.204-12.286-21.211-24.655-20.97-12.713.256-23.187 10.391-23.845 23.072-.352 6.767 2.017 13.191 6.668 18.09 4.654 4.902 10.935 7.602 17.683 7.602 4.143 0 7.5 3.358 7.5 7.5v33.341c0 4.141-3.358 7.499-7.5 7.499z" fill="#ffe07d"/></g><g fill="#ffd064"><path d="m344.201 398.404v-26.545c-8.003-1.528-15.303-5.505-21.061-11.568-7.512-7.912-11.336-18.28-10.771-29.197 1.009-19.434 16.276-35.157 35.36-37.09-1.322-.135-2.659-.21-4.013-.21-.268 0-.536.003-.806.008-20.536.414-37.458 16.794-38.522 37.292-.565 10.917 3.259 21.285 10.771 29.197 5.758 6.063 13.058 10.04 21.061 11.568v26.545c0 4.142 3.357 7.5 7.5 7.5 1.468 0 2.834-.428 3.991-1.157-2.107-1.329-3.51-3.669-3.51-6.343z"/><path d="m376.086 333.178c0-1.144-.079-2.292-.235-3.409-1.704-12.204-12.286-21.211-24.655-20.97-1.188.024-2.355.134-3.497.325 10.361 1.709 18.678 9.948 20.172 20.646.156 1.118.235 2.265.235 3.409 0 4.142 3.357 7.5 7.5 7.5 1.468 0 2.834-.428 3.991-1.157-2.108-1.329-3.511-3.67-3.511-6.344z"/></g><path d="m385.62 426.78v15.3h-83.8v-15.3c0-.22 0-.44.01-.66.35-22.84 18.97-41.24 41.89-41.24s41.54 18.4 41.89 41.24c.01.22.01.44.01.66z" fill="#ffe07d"/><path d="m356.02 386.711c-17.14 5.26-29.6 21.21-29.6 40.07v15.3h-24.6v-15.3c0-23.14 18.76-41.9 41.9-41.9 4.28 0 8.41.64 12.3 1.83z" fill="#ffd064"/><path d="m385.62 426.78v15.3h-83.8v-15.3c0-.22 0-.44.01-.66h83.78c.01.22.01.44.01.66z" fill="#ffd064"/><path d="m383.292 432.767h-79.145c-4.959 0-8.979 4.02-8.979 8.979 0 4.959 4.02 8.979 8.979 8.979h79.145c4.959 0 8.979-4.02 8.979-8.979 0-4.959-4.02-8.979-8.979-8.979z" fill="#ffe07d"/><path d="m323.509 448.086c1.62 1.63 3.87 2.63 6.35 2.63h-25.71c-2.48 0-4.72-1-6.35-2.63-1.63-1.62-2.63-3.87-2.63-6.34 0-4.96 4.02-8.98 8.98-8.98h25.71c-4.96 0-8.98 4.02-8.98 8.98 0 2.47 1.01 4.72 2.63 6.34z" fill="#ffd064"/><path d="m106.29 192.324c0 2.189 1.425 4.118 3.515 4.77 4.818 1.503 8.325 6.01 8.325 11.317v10.255c0 6.518-5.097 12.111-11.613 12.233-6.644.124-12.077-5.233-12.077-11.848v-10.64c0-3.41 1.45-6.49 3.76-8.65v-11.64c-8.06 3.22-13.76 11.1-13.76 20.29v10.101c0 11.828 9.175 21.919 20.995 22.373 12.428.477 22.695-9.499 22.695-21.833v-10.64c0-9.823-6.524-18.162-15.465-20.9-3.177-.974-6.375 1.489-6.375 4.812z" fill="#ffe07d"/><g fill="#ffd064"><path d="m109.805 197.093c4.818 1.503 8.325 6.01 8.325 11.317v10.255c0 5.893-4.172 11.016-9.787 12.036.772.142 1.569.212 2.386.197 6.517-.122 11.613-5.715 11.613-12.233v-10.255c0-5.307-3.507-9.814-8.325-11.317-2.09-.652-3.515-2.581-3.515-4.77 0-2.048 1.216-3.766 2.892-4.558-.244-.084-.482-.18-.73-.256-3.177-.973-6.375 1.491-6.375 4.813.001 2.19 1.426 4.12 3.516 4.771z"/><path d="m88.652 218.511v-10.101c0-7.488 3.786-14.105 9.548-18.041v-2.249c-8.06 3.22-13.76 11.1-13.76 20.29v10.101c0 11.828 9.175 21.919 20.995 22.373 1.042.04 2.068 0 3.076-.102-11.262-1.038-19.859-10.828-19.859-22.271z"/></g><path d="m101.52 153.61v56.11c-21.78-9.31-37.05-30.93-37.05-56.11z" fill="#ffceec"/></g></g></svg>