<svg id="Capa_1" enable-background="new 0 0 512 512" height="512" viewBox="0 0 512 512" width="512" xmlns="http://www.w3.org/2000/svg"><g><path d="m512 256c0 47.78-13.09 92.49-35.87 130.76-3 5.04-6.729-28.92-10.059-24.11-3.93 5.67-8.08 11.18-12.45 16.51-1.72 2.11-3.48 4.19-5.27 6.23-5.29 6.06-10.85 11.86-16.68 17.38-.87.83-1.75 1.65-2.63 2.47-6.17 5.71-12.62 11.09-19.32 16.16-.55.42-1.1.83-1.65 1.24-6.53 4.87-13.31 9.43-20.3 13.65-7.4 4.48-14.491 47.49-22.361 51.21-24.877 11.782-51.966 19.672-80.467 22.881-9.5 1.07-19.158-84.733-28.943-84.733-124.738 0-170.841-35.249-251.379-120.977-3.033-15.757-4.621-32.029-4.621-48.671 0-141.38 114.62-256 256-256s256 114.62 256 256z" fill="#453d81"/><g><circle cx="323.037" cy="146.783" fill="#f9f6f9" r="39.354"/><circle cx="317.766" cy="146.783" fill="#453d81" r="22.955"/><circle cx="331.703" cy="133.817" fill="#f9f6f9" r="11.458"/><path d="m237.389 50.243c-20.937 0-37.91 16.973-37.91 37.91v45.891h75.819v-45.891c.001-20.937-16.972-37.91-37.909-37.91z" fill="#ac80dd"/><path d="m248.7 51.953c-15.42 4.82-26.61 19.21-26.61 36.2v45.89h-22.61v-45.89c0-20.93 16.97-37.91 37.91-37.91 3.94 0 7.73.6 11.31 1.71z" fill="#9d66d5"/><g><path d="m310.314 165.988-8.354-159.122c-.399-7.595-10.742-9.515-13.839-2.568l-64.895 145.528z" fill="#b1e4f9"/><g fill="#90d8f9"><path d="m296.05.128c-.812-.151-1.962 1.517-2.869 5.11l-38.043 150.511-31.912-5.923 64.888-145.529c1.551-3.473 4.919-4.729 7.936-4.169z"/><path d="m230.655 138.815c-3.965-.736-7.227-3.882-7.913-8.091-.873-5.361 2.765-10.415 8.126-11.289l75.286-12.269c5.363-.874 10.415 2.765 11.289 8.126s-2.765 10.415-8.126 11.289l-75.286 12.269c-1.152.187-2.29.166-3.376-.035z"/><path d="m252.849 89.065c-3.964-.736-7.226-3.882-7.912-8.09-.874-5.361 2.763-10.416 8.124-11.29l50.684-8.266c5.36-.874 10.415 2.763 11.29 8.124.874 5.361-2.763 10.416-8.124 11.29l-50.684 8.266c-1.153.188-2.292.167-3.378-.034z"/><path d="m275.034 39.312c-3.965-.736-7.227-3.883-7.913-8.092-.873-5.361 2.765-10.415 8.126-11.288l26.104-4.252c5.36-.875 10.415 2.765 11.288 8.126s-2.765 10.415-8.126 11.288l-26.104 4.252c-1.152.188-2.29.167-3.375-.034z"/></g></g><path d="m167.134 57.892c29.306 0 53.064 23.758 53.064 53.064s-23.758 53.064-53.064 53.064z" fill="#ffceec"/><path d="m266.48 184.59h-51.03c.14 1.88.24 3.78.24 5.69 0 37.45-28.15 68.3-64.44 72.59 1.04 4.91 1.59 9.99 1.59 15.21 0 32.48-21.2 60.01-50.51 69.53 6.13 11.76 9.61 25.12 9.61 39.29 0 23.83 17.652 18.248 1.882 33.698-8.64-7.64-15.878-5.7-23.408-14.43-5.13-5.95-38.314 4.832-42.894-1.578-20.93-29.31-35.83-63.22-42.89-99.92 2.1-.58 4.24-1.07 6.41-1.47-2.87-7.83-4.43-16.3-4.43-25.12 0-37.45 28.15-68.3 64.44-72.59-1.04-4.91-1.59-9.99-1.59-15.21 0-40.38 32.73-73.11 73.11-73.11h92.08c17.58 0 31.83 14.25 31.83 31.82z" fill="#ac80dd"/><path d="m120.33 190.28c0 5.22.56 10.3 1.6 15.21-36.29 4.29-64.45 35.14-64.45 72.59 0 8.82 1.57 17.29 4.44 25.12-20.08 3.75-37.68 14.54-50.14 29.72-2.91-9.2-5.3-18.63-7.15-28.25 2.1-.58 4.24-1.07 6.41-1.47-2.87-7.83-4.43-16.3-4.43-25.12 0-37.45 28.15-68.3 64.44-72.59-1.04-4.91-1.59-9.99-1.59-15.21 0-40.38 32.73-73.11 73.11-73.11h50.88c-40.38 0-73.12 32.73-73.12 73.11z" fill="#9d66d5"/><path d="m445.962 153.608h-269.92v100.46c0 51.21 41.52 92.729 92.73 92.729 19.55 0 37.69-6.05 52.64-16.38 7.872-5.439 14.85-12.072 20.701-19.624h3.987c4.626 32.213 32.394 57.056 65.867 57.056 36.699 0 66.556-29.857 66.556-66.556v-22.436-27.267-65.422c-.001-17.98-14.581-32.56-32.561-32.56z" fill="#ffddf1"/><path d="m282.97 304.03v206.56c-8.86.93-17.86 1.41-26.97 1.41-77.51 0-146.97-34.45-193.91-88.87l113.96-269.52z" fill="#ffddf1"/><path d="m197.67 294.87-84.84 173.38c-18.85-12.75-35.92-27.94-50.74-45.12-5.13-5.95-9.99-12.13-14.57-18.54l128.53-250.98 18.48 26z" fill="#ffceec"/><path d="m64.468 153.606c0 33.687 27.309 60.996 60.996 60.996s60.996-27.309 60.996-60.996z" fill="#ffceec"/><path d="m430.578 203.283c-6.097 0-11.039-4.942-11.039-11.039 0-6.097 4.942-11.039 11.039-11.039 6.097 0 11.039 4.942 11.039 11.039 0 6.097-4.942 11.039-11.039 11.039z" fill="#eaaadd"/><path d="m462.52 203.283c-6.097 0-11.039-4.942-11.039-11.039 0-6.097 4.942-11.039 11.039-11.039 6.097 0 11.039 4.942 11.039 11.039 0 6.097-4.943 11.039-11.039 11.039z" fill="#eaaadd"/><path d="m281.882 345.876c-4.28.61-8.66.92-13.11.92-51.21 0-92.73-41.52-92.73-92.73v-100.46h26.16v100.46c0 46.78 34.65 85.47 79.68 91.81z" fill="#ffceec"/><circle cx="248.56" cy="150.773" fill="#f9f6f9" r="43.344"/><circle cx="249.684" cy="150.773" fill="#453d81" r="25.283"/><ellipse cx="248.56" cy="193.853" fill="#ffddf1" rx="42.307" ry="22.897"/><circle cx="231.276" cy="215.622" fill="#da387d" r="31.259"/><circle cx="262.699" cy="140.304" fill="#f9f6f9" r="14.139"/><circle cx="237.095" cy="158.259" fill="#f9f6f9" r="8.147"/><path d="m458.52 251.59v49.7c0 25.72-20.84 46.56-46.55 46.56-25.72 0-46.56-35.79-46.56-61.5v-21.98l9.546-6.809c0-5.24 4.25-9.49 9.49-9.49l52.544-5.971h12.04c5.24 0 9.49 4.25 9.49 9.49z" fill="#453d81"/><path d="m436.99 242.1v12.78c0 5.24-4.25 9.49-9.49 9.49h-62.09v-12.78c0-5.24 4.25-9.49 9.49-9.49z" fill="#f9f6f9"/><g><path d="m466.63 331.291v50.24c-20.577 29.723-47.287 74.894-78.298 93.653-7.404 4.479-15.053 8.592-22.922 12.316v-201.149h56.28c24.82 0 44.94 20.12 44.94 44.94z" fill="#9d66d5"/><path d="m476.13 331.291v55.469c-3 5.04-6.17 9.97-9.5 14.78-3.93 5.67-8.08 11.18-12.45 16.51-1.72 2.11-4.027-3.613-5.817-1.574l-6.533-78.245c0-24.82-7.77-51.88-32.59-51.88h21.95c24.82 0 44.94 20.12 44.94 44.94z" fill="#da387d"/><path d="m454.18 331.291v86.759c-6.82 8.33-14.15 16.22-21.95 23.61-.87.83-5.004-5.525-5.884-4.706l-2.426-97.354c0-24.82-11.81-53.25-36.63-53.25h21.95c24.82.001 44.94 20.121 44.94 44.941z" fill="#ffe07d"/><path d="m432.23 331.291v110.369c-6.96 6.63-14.29 12.84-21.95 18.63-.55.42-7.633-5.703-8.183-5.293l.543-116.065c0-24.82-12.48-52.58-37.3-52.58h21.95c24.82-.001 44.94 20.119 44.94 44.939z" fill="#b3e59f"/><path d="m410.28 331.291v128.999c-7.04 5.34-14.37 10.31-21.95 14.89v-143.889c0-16.82-9.24-31.48-22.92-39.19v-5.75c24.79.04 44.87 20.14 44.87 44.94z" fill="#b1e4f9"/></g></g></g></svg>