<svg id="Capa_1" enable-background="new 0 0 512 512" height="512" viewBox="0 0 512 512" width="512" xmlns="http://www.w3.org/2000/svg"><g><path d="m512 256c0 132.276-100.322 241.12-229.029 254.596-8.863.928-192.557-104.428-278.35-205.924-3.033-15.758-4.621-32.029-4.621-48.672 0-141.385 114.615-256 256-256s256 114.615 256 256z" fill="#ffd064"/><g><path d="m362.558 121.149-40.75-27.598c-5.88-3.982-7.418-11.977-3.436-17.857 3.982-5.88 11.977-7.418 17.857-3.436l40.75 27.598c5.88 3.982 7.418 11.977 3.436 17.857-3.982 5.88-11.977 7.418-17.857 3.436z" fill="#78c2a4"/><circle cx="329.836" cy="149.616" fill="#f9f6f9" r="34.667"/><circle cx="333.617" cy="149.616" fill="#453d81" r="20.221"/><path d="m237.389 50.243c-20.937 0-37.91 16.973-37.91 37.91v45.891h75.819v-45.891c.001-20.937-16.972-37.91-37.909-37.91z" fill="#ac80dd"/><path d="m248.7 51.953c-15.42 4.82-26.61 19.21-26.61 36.2v45.89h-22.61v-45.89c0-20.93 16.97-37.91 37.91-37.91 3.94 0 7.73.6 11.31 1.71z" fill="#9d66d5"/><g><path d="m310.314 165.988-8.354-159.122c-.399-7.595-10.742-9.515-13.839-2.568l-64.895 145.528z" fill="#b1e4f9"/><g fill="#90d8f9"><path d="m296.05.128c-.812-.151-1.962 1.517-2.869 5.11l-38.043 150.511-31.912-5.923 64.888-145.529c1.551-3.473 4.919-4.729 7.936-4.169z"/><path d="m230.655 138.815c-3.965-.736-7.227-3.882-7.913-8.091-.873-5.361 2.765-10.415 8.126-11.289l75.286-12.269c5.363-.874 10.415 2.765 11.289 8.126s-2.765 10.415-8.126 11.289l-75.286 12.269c-1.152.187-2.29.166-3.376-.035z"/><path d="m252.849 89.065c-3.964-.736-7.226-3.882-7.912-8.09-.874-5.361 2.763-10.416 8.124-11.29l50.684-8.266c5.36-.874 10.415 2.763 11.29 8.124.874 5.361-2.763 10.416-8.124 11.29l-50.684 8.266c-1.153.188-2.292.167-3.378-.034z"/><path d="m275.034 39.312c-3.965-.736-7.227-3.883-7.913-8.092-.873-5.361 2.765-10.415 8.126-11.288l26.104-4.252c5.36-.875 10.415 2.765 11.288 8.126s-2.765 10.415-8.126 11.288l-26.104 4.252c-1.152.188-2.29.167-3.375-.034z"/></g></g><path d="m167.134 57.892c29.306 0 53.064 23.758 53.064 53.064s-23.758 53.064-53.064 53.064z" fill="#78c2a4"/><path d="m266.48 184.59h-51.03c.14 1.88.24 3.78.24 5.69 0 37.45-28.15 68.3-64.44 72.59 1.04 4.91 1.59 9.99 1.59 15.21 0 32.48-21.2 60.01-50.51 69.53 6.13 11.76 9.61 25.12 9.61 39.29 0 23.83 17.652 18.248 1.882 33.698-8.64-7.64-15.878-5.7-23.408-14.43-5.13-5.95-38.314 4.832-42.894-1.578-20.93-29.31-35.83-63.22-42.89-99.92 2.1-.58 4.24-1.07 6.41-1.47-2.87-7.83-4.43-16.3-4.43-25.12 0-37.45 28.15-68.3 64.44-72.59-1.04-4.91-1.59-9.99-1.59-15.21 0-40.38 32.73-73.11 73.11-73.11h92.08c17.58 0 31.83 14.25 31.83 31.82z" fill="#ac80dd"/><path d="m120.33 190.28c0 5.22.56 10.3 1.6 15.21-36.29 4.29-64.45 35.14-64.45 72.59 0 8.82 1.57 17.29 4.44 25.12-20.08 3.75-37.68 14.54-50.14 29.72-2.91-9.2-5.3-18.63-7.15-28.25 2.1-.58 4.24-1.07 6.41-1.47-2.87-7.83-4.43-16.3-4.43-25.12 0-37.45 28.15-68.3 64.44-72.59-1.04-4.91-1.59-9.99-1.59-15.21 0-40.38 32.73-73.11 73.11-73.11h50.88c-40.38 0-73.12 32.73-73.12 73.11z" fill="#9d66d5"/><path d="m483.49 235.3h-4.97v-49.13c0-17.98-14.58-32.56-32.56-32.56h-269.92v100.46c0 51.21 41.52 92.73 92.73 92.73 19.55 0 37.69-6.05 52.64-16.38 12.95-8.948 23.507-21.104 30.535-35.323l69.625-6.842c3.914 11.547 14.831 19.864 27.701 19.864 8.07 0 15.39-3.27 20.68-8.57s8.57-12.61 8.57-20.69v-15.959h4.97c7.62 0 13.8-6.18 13.8-13.8s-6.181-13.8-13.801-13.8z" fill="#b3e59f"/><path d="m282.97 304.03v206.56c-8.86.93-17.86 1.41-26.97 1.41-77.51 0-146.97-34.45-193.91-88.87l113.96-269.52z" fill="#b3e59f"/><g fill="#78c2a4"><path d="m197.67 294.87-84.84 173.38c-18.85-12.75-35.92-27.94-50.74-45.12-5.13-5.95-9.99-12.13-14.57-18.54l128.53-250.98 18.48 26z"/><path d="m64.468 153.606c0 33.687 27.309 60.996 60.996 60.996s60.996-27.309 60.996-60.996z"/><path d="m430.578 203.283c-6.097 0-11.039-4.942-11.039-11.039 0-6.097 4.942-11.039 11.039-11.039 6.097 0 11.039 4.942 11.039 11.039 0 6.097-4.942 11.039-11.039 11.039z"/><path d="m462.52 203.283c-6.097 0-11.039-4.942-11.039-11.039 0-6.097 4.942-11.039 11.039-11.039 6.097 0 11.039 4.942 11.039 11.039 0 6.097-4.943 11.039-11.039 11.039z"/><path d="m281.882 345.876c-4.28.61-8.66.92-13.11.92-51.21 0-92.73-41.52-92.73-92.73v-100.46h26.16v100.46c0 46.78 34.65 85.47 79.68 91.81z"/><path d="m299.27 153.61c-2.03 25.23-23.15 45.08-48.91 45.08s-46.89-19.85-48.92-45.08z"/></g><circle cx="250.358" cy="149.616" fill="#f9f6f9" r="34.667"/><circle cx="244.607" cy="149.616" fill="#453d81" r="20.221"/><path d="m265.203 132.608-46.495 16.137c-6.709 2.328-14.035-1.223-16.363-7.931-2.328-6.709 1.223-14.035 7.931-16.363l46.495-16.137c6.709-2.328 14.035 1.223 16.363 7.931 2.328 6.708-1.223 14.034-7.931 16.363z" fill="#78c2a4"/><path d="m467.969 255.652c-4.401-5.381-10.43-12.752-22.163-12.752-11.732 0-17.76 7.37-22.161 12.752-4.003 4.895-6.124 7.248-10.551 7.248-4.428 0-6.549-2.353-10.553-7.249-4.401-5.381-10.43-12.751-22.164-12.751-11.733 0-17.762 7.37-22.163 12.751-3.588 4.387-5.669 6.726-9.248 7.166-4.433-16.126-19.215-28.011-36.729-28.011-4.143 0-7.5 3.358-7.5 7.5s3.357 7.5 7.5 7.5c12.734 0 23.094 10.36 23.094 23.094s-10.359 23.094-23.094 23.094c-4.143 0-7.5 3.358-7.5 7.5s3.357 7.5 7.5 7.5c19.347 0 35.36-14.502 37.769-33.204 10.208-.906 15.722-7.632 19.819-12.642 4.004-4.895 6.124-7.248 10.552-7.248s6.549 2.353 10.553 7.249c4.401 5.381 10.43 12.751 22.164 12.751 11.733 0 17.761-7.371 22.162-12.752 4.003-4.895 6.124-7.248 10.55-7.248 4.428 0 6.548 2.353 10.552 7.249 4.401 5.381 10.429 12.751 22.162 12.751v-15c-4.427 0-6.548-2.353-10.551-7.248z" fill="#78c2a4"/><g><circle cx="130.249" cy="103.022" fill="#b3e59f" r="18.955"/><path d="m136.244 121.012c-1.88.63-3.89.97-5.99.97-10.47 0-18.96-8.49-18.96-18.96s8.49-18.95 18.96-18.95c2.1 0 4.11.34 5.99.97-7.54 2.5-12.98 9.6-12.98 17.98s5.44 15.49 12.98 17.99z" fill="#78c2a4"/></g><g><circle cx="402.251" cy="81.226" fill="#b3e59f" r="18.955"/><path d="m408.246 99.216c-1.88.63-3.89.97-5.99.97-10.47 0-18.96-8.49-18.96-18.96s8.49-18.95 18.96-18.95c2.1 0 4.11.34 5.99.97-7.54 2.5-12.98 9.6-12.98 17.98s5.44 15.49 12.98 17.99z" fill="#78c2a4"/></g><g><circle cx="378.158" cy="30.694" fill="#b3e59f" r="22.446"/><path d="m385.257 51.997c-2.226.746-4.606 1.149-7.093 1.149-12.398 0-22.452-10.054-22.452-22.452s10.054-22.44 22.452-22.44c2.487 0 4.867.402 7.093 1.149-8.929 2.96-15.371 11.368-15.371 21.292.001 9.922 6.443 18.342 15.371 21.302z" fill="#78c2a4"/></g><g><circle cx="99.821" cy="67.606" fill="#b3e59f" r="22.779"/><path d="m107.026 89.225c-2.259.757-4.675 1.166-7.198 1.166-12.582 0-22.785-10.203-22.785-22.785s10.203-22.773 22.785-22.773c2.524 0 4.939.408 7.198 1.166-9.061 3.004-15.598 11.537-15.598 21.607-.001 10.07 6.537 18.615 15.598 21.619z" fill="#78c2a4"/></g><g><circle cx="144.548" cy="27.484" fill="#b3e59f" r="27.484"/><path d="m153.241 53.569c-2.726.913-5.64 1.406-8.685 1.406-15.181 0-27.491-12.31-27.491-27.491s12.31-27.477 27.491-27.477c3.045 0 5.96.493 8.685 1.406-10.933 3.625-18.821 13.92-18.821 26.071s7.889 22.46 18.821 26.085z" fill="#78c2a4"/></g><path d="m254.287 203.449h-30.594c-8.632 0-15.629 6.998-15.629 15.629 0 8.632 6.998 15.629 15.629 15.629h30.594c8.632 0 15.629-6.998 15.629-15.629 0-8.631-6.997-15.629-15.629-15.629z" fill="#78c2a4"/></g></g></svg>